<?xml version="1.0" encoding="UTF-8" standalone="no"?>
<!-- Created with Inkscape (http://www.inkscape.org/) -->

<svg
   xmlns:dc="http://purl.org/dc/elements/1.1/"
   xmlns:cc="http://creativecommons.org/ns#"
   xmlns:rdf="http://www.w3.org/1999/02/22-rdf-syntax-ns#"
   xmlns:svg="http://www.w3.org/2000/svg"
   xmlns="http://www.w3.org/2000/svg"
   xmlns:xlink="http://www.w3.org/1999/xlink"
   xmlns:sodipodi="http://sodipodi.sourceforge.net/DTD/sodipodi-0.dtd"
   xmlns:inkscape="http://www.inkscape.org/namespaces/inkscape"
   width="82.411064mm"
   height="108.89914mm"
   viewBox="0 0 292.00771 385.86309"
   id="svg2"
   version="1.1"
   inkscape:version="0.91 r13725"
   sodipodi:docname="Royal Norwegian Air Force logo.svg">
  <defs
     id="defs4">
    <linearGradient
       inkscape:collect="always"
       xlink:href="#linearGradient4338"
       id="linearGradient4344"
       x1="9.3249722"
       y1="147.7466"
       x2="10.47402"
       y2="146.1998"
       gradientUnits="userSpaceOnUse" />
    <linearGradient
       inkscape:collect="always"
       id="linearGradient4338">
      <stop
         style="stop-color:#e6e6e6;stop-opacity:1;"
         offset="0"
         id="stop4340" />
      <stop
         style="stop-color:#e6e6e6;stop-opacity:0;"
         offset="1"
         id="stop4342" />
    </linearGradient>
    <linearGradient
       inkscape:collect="always"
       xlink:href="#linearGradient4338"
       id="linearGradient4361"
       gradientUnits="userSpaceOnUse"
       x1="9.3249722"
       y1="147.7466"
       x2="10.47402"
       y2="146.1998"
       gradientTransform="matrix(0.75240825,0,0,0.75468178,-263.55217,41.704199)" />
  </defs>
  <sodipodi:namedview
     id="base"
     pagecolor="#ffffff"
     bordercolor="#666666"
     borderopacity="1.0"
     inkscape:pageopacity="0.0"
     inkscape:pageshadow="2"
     inkscape:zoom="0.35"
     inkscape:cx="-146.139"
     inkscape:cy="275.78869"
     inkscape:document-units="px"
     inkscape:current-layer="layer1"
     showgrid="false"
     fit-margin-top="0"
     fit-margin-left="0"
     fit-margin-right="0"
     fit-margin-bottom="0"
     inkscape:window-width="1600"
     inkscape:window-height="838"
     inkscape:window-x="-8"
     inkscape:window-y="-8"
     inkscape:window-maximized="1" />
  <metadata
     id="metadata7">
    <rdf:RDF>
      <cc:Work
         rdf:about="">
        <dc:format>image/svg+xml</dc:format>
        <dc:type
           rdf:resource="http://purl.org/dc/dcmitype/StillImage" />
        <dc:title></dc:title>
      </cc:Work>
    </rdf:RDF>
  </metadata>
  <g
     inkscape:label="Layer 1"
     inkscape:groupmode="layer"
     id="layer1"
     transform="translate(-99.71043,-422.2878)">
    <g
       transform="matrix(0.8646393,0,0,0.8646393,99.710433,422.2878)"
       id="g4417">
      <g
         id="g4647-7-9"
         transform="matrix(2.6345606,0,0,2.6126619,717.25992,136.29647)">
        <path
           sodipodi:nodetypes="cccscccccccccccccscccccccccccccccccccccccccsccscccccccsscccscscccccccccsscccsccccccscccccsccccccccscscscccc"
           inkscape:connector-curvature="0"
           id="path4625-5-7"
           d="m -232.8927,-10.861011 c 0,-0.279633 -0.76793,-4.58181 -1.12737,-6.315858 -0.39649,-1.912765 -1.16375,-5.051635 -1.61932,-6.624602 -0.13932,-0.481032 -0.25331,-0.912448 -0.25331,-0.958704 0,-0.04626 0.28505,-0.17878 0.63344,-0.294498 0.43309,-0.143847 0.61276,-0.264303 0.56805,-0.380826 -0.0772,-0.201267 -0.51136,-2.504027 -0.7005,-3.715759 -0.17734,-1.136055 -0.0178,-1.70288 0.67399,-2.394672 1.0348,-1.034796 3.56927,-1.583873 7.38752,-1.600459 2.17459,-0.0095 4.79903,0.101885 4.90523,0.208085 0.0284,0.02844 0.3989,-0.110299 0.82324,-0.308304 1.1839,-0.552428 2.6693,-0.690673 5.49275,-0.511208 1.26039,0.08011 2.96372,0.256496 3.78519,0.391962 0.82148,0.135465 1.54719,0.247468 1.61271,0.248894 0.0655,0.0014 -0.0803,-0.208346 -0.32414,-0.466159 -0.65607,-0.693789 -0.96403,-1.188499 -1.24099,-1.993484 -0.30045,-0.873268 -0.33412,-2.341235 -0.0732,-3.192768 0.38625,-1.260735 1.35899,-2.444432 2.52694,-3.074948 l 0.6173,-0.333249 0.0343,-2.0934 0.0343,-2.093401 -1.37803,0 -1.37802,0 0,-1.369336 0,-1.369336 2.78125,0.02687 0,-3.03818 1.40625,0 1.4375,0 0,1.5 0,1.5 1.375,0 1.375,0 0,1.375 0,1.375 -1.375,0 -1.375,0 0,2.106016 0,2.106016 0.52835,0.237734 c 0.66924,0.301125 1.85227,1.45118 2.20596,2.144476 1.04648,2.051273 0.71014,4.518381 -0.82879,6.079309 -0.31257,0.317048 -0.51763,0.57619 -0.45567,0.575873 0.062,-3.75e-4 0.87203,-0.115814 1.80015,-0.25666 2.4353,-0.369568 6.47956,-0.470359 7.80625,-0.194548 0.54657,0.113628 1.19076,0.322832 1.43155,0.464898 0.42453,0.25048 0.508,0.254125 2.75624,0.120357 4.71048,-0.280267 8.78453,0.305532 10.1291,1.45644 1.01222,0.866415 1.08539,1.521167 0.49982,4.472589 -0.2046,1.03125 -0.37221,1.91109 -0.37248,1.955199 -2.5e-4,0.04411 0.13766,0.114871 0.30651,0.157247 0.16884,0.04238 0.44687,0.130234 0.61784,0.195235 l 0.31085,0.118187 -0.25207,0.849566 c -0.99003,3.336782 -2.85861,11.700595 -2.85861,12.795251 0,0.238285 -0.36682,0.241815 -25.125,0.241815 -16.20428,0 -25.125,-0.04319 -25.125,-0.121642 z m 49.22895,-13.610113 c 0.21634,-0.314574 0.33199,-0.881761 0.70463,-3.455745 0.2427,-1.676436 -10e-4,-2.014489 -1.78408,-2.471937 -0.79996,-0.205265 -1.52156,-0.256925 -4.28407,-0.306709 l -3.32207,-0.05987 -0.24879,1.766372 -0.24878,1.766371 0.32085,0.07219 c 1.96144,0.441286 3.43157,0.907598 4.75463,1.508119 0.96441,0.437731 3.20142,1.861201 3.51085,2.23405 0.15855,0.19103 0.18477,0.16645 0.2724,-0.255359 0.0533,-0.256705 0.19933,-0.61557 0.32443,-0.79748 z m -44.8812,-0.925225 c 1.23283,-0.647175 3.10941,-1.326239 4.58975,-1.660859 0.55,-0.124323 1.04994,-0.268921 1.11098,-0.321327 0.0639,-0.05487 0.0144,-0.814326 -0.1168,-1.790559 l -0.22776,-1.695275 -2.89809,0 c -4.21125,0 -5.93815,0.357613 -6.39958,1.325251 -0.18751,0.393213 -0.17866,0.549835 0.14531,2.57195 0.24024,1.49955 0.41498,2.242235 0.57556,2.446389 0.12683,0.161233 0.26592,0.453979 0.30909,0.650546 l 0.0785,0.357397 0.87164,-0.655725 c 0.47941,-0.360649 1.36204,-0.913153 1.9614,-1.227788 z m 11.15225,-2.782011 c 0.99688,-0.108043 3.17656,-0.230688 4.84375,-0.272545 l 3.03125,-0.0761 0,-1.15309 0,-1.15309 -1.71875,-0.269662 c -2.56719,-0.402778 -3.68669,-0.509594 -5.34375,-0.509872 -1.73632,-2.5e-4 -2.2701,0.11668 -2.80266,0.614164 -0.42241,0.394588 -0.47102,0.773004 -0.30425,2.368536 0.0658,0.629314 0.11747,0.759724 0.28125,0.709562 0.11036,-0.0338 1.01629,-0.149857 2.01316,-0.257899 z m 21.56346,-0.949359 c 0.1039,-1.451724 0.002,-1.701195 -0.88305,-2.165572 -0.75516,-0.396152 -3.95834,-0.345927 -6.98833,0.109576 -1.23498,0.185656 -2.28967,0.364904 -2.34375,0.398329 -0.0541,0.03342 -0.0983,0.563702 -0.0983,1.178395 l 0,1.117622 1.63283,0 c 1.81227,0 4.64363,0.186756 6.55467,0.432348 0.6875,0.08835 1.42675,0.167842 1.64277,0.176646 l 0.39276,0.01601 z"
           style="opacity:1;fill:#000000;fill-opacity:1;stroke:#000000;stroke-width:0.106625;stroke-linecap:square;stroke-linejoin:miter;stroke-miterlimit:4;stroke-dasharray:none;stroke-dashoffset:215.30000305;stroke-opacity:1;paint-order:markers stroke fill" />
        <g
           style="fill:#cccccc;fill-opacity:1;stroke:none;stroke-width:1;stroke-miterlimit:4;stroke-dasharray:none"
           id="g11791-8-4"
           transform="matrix(0.24774602,0,0,0.25885002,-280.75673,-124.76455)">
          <g
             style="fill:#cccccc;fill-opacity:1;stroke:none;stroke-width:1;stroke-miterlimit:4;stroke-dasharray:none"
             id="g11784-0-6">
            <path
               inkscape:connector-curvature="0"
               d="m 299.13503,282.16528 c -0.0571,3.64673 -0.0571,7.67211 0,11.4352 l 11.35058,0 0,7.9619 c -3.64885,0.0592 -7.70172,0 -11.4077,0 l 0,17.1401 c -1.56318,-0.0571 -3.35906,-0.2898 -5.03858,-0.2898 -1.15706,0 -2.257,0.23268 -3.41617,0.40615 l -0.0571,-0.40615 0,-16.79108 -11.06077,0 c 0,-2.77947 0,-5.38549 0,-8.05073 3.47539,-0.11424 7.44154,0.17556 11.14751,-0.0571 l 0,-11.4077 c 2.77947,0.0592 5.76201,0 8.48226,0.0592"
               style="fill:#ffcc00;fill-opacity:1;fill-rule:nonzero;stroke:none;stroke-width:1;stroke-miterlimit:4;stroke-dasharray:none"
               id="path3216-2-9" />
            <path
               inkscape:connector-curvature="0"
               d="m 299.07791,320.38201 c -0.40612,1.09995 -1.21627,2.14279 -1.73664,3.24272 l -0.0592,13.89738 15.51979,0 c 0.0571,1.50608 -0.11633,3.03966 -0.3469,4.48863 l -35.32303,0 c -0.23269,-1.38974 -0.40614,-2.98255 -0.34903,-4.48863 l 15.2004,0 0,-14.01371 c -0.52036,-1.04072 -1.18667,-2.02644 -1.59069,-3.1835 2.77946,-0.69592 5.84663,-0.57959 8.68532,0.0571"
               style="fill:#ffcc00;fill-opacity:1;fill-rule:nonzero;stroke:none;stroke-width:1;stroke-miterlimit:4;stroke-dasharray:none"
               id="path3218-1-6" />
            <path
               inkscape:connector-curvature="0"
               d="m 290.91294,324.20432 -0.0571,12.0444 c -4.57534,0.0571 -9.44048,0.0571 -13.95661,0 0.46325,-6.36911 5.15493,-12.62399 11.11791,-14.99732 0.40613,-0.0592 1.04283,-0.9265 1.27551,-0.17347 l 1.6203,3.12639"
               style="fill:#ffcc00;fill-opacity:1;fill-rule:nonzero;stroke:none;stroke-width:1;stroke-miterlimit:4;stroke-dasharray:none"
               id="path3220-1-8" />
            <path
               inkscape:connector-curvature="0"
               d="m 312.45494,334.39573 0.3469,1.9101 c -4.74879,0.11634 -9.61181,-0.0571 -14.3035,0 l 0.0592,-12.39131 1.9101,-3.12637 c 5.84874,1.91009 10.94445,7.52615 11.98728,13.60758"
               style="fill:#ffcc00;fill-opacity:1;fill-rule:nonzero;stroke:none;stroke-width:1;stroke-miterlimit:4;stroke-dasharray:none"
               id="path3222-5-0" />
            <path
               inkscape:connector-curvature="0"
               d="m 312.10592,343.2249 c -1.50397,6.19777 -7.35271,11.49655 -13.43413,12.76995 -6.07931,1.50606 -12.6811,-0.52248 -16.90743,-5.26916 -1.9122,-2.25912 -3.64885,-4.66209 -4.22844,-7.50079 l 34.51289,0.0296 0.0571,-0.0296"
               style="fill:#ffcc00;fill-opacity:1;fill-rule:nonzero;stroke:none;stroke-width:1;stroke-miterlimit:4;stroke-dasharray:none"
               id="path3224-4-8" />
          </g>
          <g
             style="fill:#cccccc;fill-opacity:1;stroke:none;stroke-width:1;stroke-miterlimit:4;stroke-dasharray:none"
             id="g11777-7-7">
            <path
               inkscape:connector-curvature="0"
               d="m 287.49677,356.63154 c -0.0571,1.67953 0.0571,3.24272 0.0571,4.92225 -11.23212,-1.85298 -22.63982,-3.70597 -34.04751,-3.06927 -3.30196,0.52036 -7.00793,1.73665 -8.45478,5.15282 -0.75303,2.08566 0.0571,4.51823 0,6.6589 l 1.09995,11.46692 c -3.12637,-0.23269 -6.60179,-0.2898 -9.14858,1.50396 l -0.17345,-0.3469 c -0.9265,-6.88946 -2.1999,-13.72393 -2.95293,-20.67261 -0.11634,-2.43047 1.21417,-4.86304 3.41617,-6.19566 5.96297,-3.76308 14.07083,-3.24272 21.07663,-3.06926 9.90163,0.28978 19.62979,1.67952 29.12739,3.64885"
               style="fill:#ffcc00;fill-opacity:1;fill-rule:nonzero;stroke:none;stroke-width:1;stroke-miterlimit:4;stroke-dasharray:none"
               id="path3226-0-3" />
            <path
               inkscape:connector-curvature="0"
               d="m 344.88216,353.79283 c 2.83658,0.40614 5.61606,1.33263 7.9894,3.18562 2.14277,1.62242 3.01215,4.28554 2.48969,7.00791 l -2.95293,19.80323 c -0.69382,-0.28979 -1.2734,-0.69593 -1.9101,-0.98572 -2.08567,-0.86725 -5.09571,-0.81015 -7.41194,-0.52035 0.46326,-5.6753 1.2734,-11.0608 1.56319,-16.73397 -0.23268,-3.30194 -3.47328,-5.44473 -6.31199,-6.31198 -2.95292,-0.81228 -6.25276,-0.5796 -9.49548,-0.6367 -9.32416,0.11422 -18.12581,1.6203 -26.98461,2.95292 -0.28978,-0.6367 0.11634,-1.50608 0,-2.37546 0.0571,-0.86726 0,-1.67742 0.0571,-2.48968 12.74032,-2.60602 25.65197,-3.93654 39.14534,-3.47329 1.21629,0.17345 2.60602,0.28979 3.82231,0.57747"
               style="fill:#ffcc00;fill-opacity:1;fill-rule:nonzero;stroke:none;stroke-width:1;stroke-miterlimit:4;stroke-dasharray:none"
               id="path3228-3-6" />
            <path
               inkscape:connector-curvature="0"
               d="m 234.28059,356.2254 c -0.9836,1.67953 -1.9672,3.30195 -1.85298,5.38551 -6.716,-0.23057 -13.43413,-0.5796 -20.26647,-0.23057 -4.57536,0.11422 -9.32204,0.75303 -13.55047,2.02643 -2.5468,0.86727 -5.26916,2.77948 -5.67319,5.61607 0,4.05287 0.92438,8.16497 1.6203,12.0444 l 0.69594,3.87942 c -2.37546,-1.04284 -5.15493,-1.04284 -7.70173,-0.75305 -1.33263,-5.73241 -2.48969,-11.7546 -3.30196,-17.60334 0,-3.35694 2.72237,-6.19565 5.73241,-7.46905 7.64462,-3.12637 16.04016,-3.35907 24.43782,-3.76307 6.77311,-0.11635 13.20144,0.3469 19.86033,0.86725"
               style="fill:#ffcc00;fill-opacity:1;fill-rule:nonzero;stroke:none;stroke-width:1;stroke-miterlimit:4;stroke-dasharray:none"
               id="path3230-9-5" />
            <path
               inkscape:connector-curvature="0"
               d="m 397.34317,358.89065 c 3.47541,0.98361 7.87518,3.58963 8.10786,7.69962 0.23057,1.85298 -0.40613,3.53252 -0.57958,5.26915 -0.75304,4.45902 -1.79587,8.8038 -2.72237,13.20357 -2.48968,-0.46325 -5.61606,-0.28979 -7.75884,0.6367 0.81016,-5.15282 2.08567,-10.30775 2.48968,-15.63403 -0.28978,-3.06926 -3.29982,-5.32838 -6.02219,-6.0793 -9.8445,-2.83871 -20.38282,-2.31835 -30.57423,-2.08567 l -3.35695,0.11634 c 0.0571,-2.08566 -0.81226,-3.76518 -1.85298,-5.38549 12.68109,-1.21629 25.93966,-1.21629 38.04327,1.09994 l 4.22633,1.15917"
               style="fill:#ffcc00;fill-opacity:1;fill-rule:nonzero;stroke:none;stroke-width:1;stroke-miterlimit:4;stroke-dasharray:none"
               id="path3232-1-4" />
            <path
               inkscape:connector-curvature="0"
               d="m 300.12075,357.21112 c 0.28768,1.9101 -0.23268,3.87942 -0.0592,6.07931 -0.11633,5.73241 -0.40401,11.4077 -0.86726,17.14011 -2.89581,-0.86939 -6.37123,-0.86939 -9.32415,0.0571 -0.6367,-7.87518 -0.86726,-15.5769 -0.75304,-23.39286 3.64886,0.92649 7.29771,0.92649 11.00368,0.11634"
               style="fill:#ffcc00;fill-opacity:1;fill-rule:nonzero;stroke:none;stroke-width:1;stroke-miterlimit:4;stroke-dasharray:none"
               id="path3234-2-2" />
          </g>
          <path
             inkscape:connector-curvature="0"
             transform="translate(435.81292,337.94101)"
             id="path3236-3-6"
             d="m -142.21875,43.4375 c -2.33556,0.122494 -4.56242,0.925963 -6.09375,2.75 -3.76519,5.15282 1.44243,9.867431 3.875,14.09375 -0.3469,0.98572 -0.92041,1.886011 -1.5,2.8125 -1.56319,-1.2734 -2.78922,-2.715832 -4.46875,-3.875 -2.14067,-1.56319 -4.80562,-3.403792 -7.46875,-2.1875 -3.35906,2.14278 -4.22192,6.294023 -3.875,10 0.23056,2.95293 1.79708,6.042268 4.75,6.96875 4.92014,0.69594 8.28852,-3.894101 11.53125,-6.90625 0.57958,0.92649 1.19628,1.858032 1.71875,2.84375 l -4.4375,8.96875 c -1.56531,2.1999 -2.25715,5.453903 -5.09375,6.4375 -7.9344,2.02856 -17.26387,2.193583 -25.3125,0.6875 -1.79587,-0.46325 -3.72121,-0.815084 -4.9375,-2.4375 C -186.08016,79.48377 -188.03067,75.09267 -190,70.75 l 1.84375,-3 0.125,0 c 3.01004,3.53041 6.89025,7.738759 11.8125,6 2.77948,-1.2734 3.39233,-4.37676 3.625,-7.15625 0.0571,-3.5325 -0.22287,-7.709392 -3.8125,-9.15625 -1.09995,-0.23267 -2.30958,-0.69065 -3.46875,-0.34375 -3.35695,1.27552 -5.96514,4.046951 -8.6875,6.59375 -0.6367,-0.98361 -0.91174,-2.207171 -1.375,-3.25 1.62242,-2.31623 3.58218,-4.453201 4.625,-7 0.86938,-1.56318 0.3867,-3.71266 -0.25,-5.21875 -0.81228,-1.62029 -2.47133,-2.553962 -4.09375,-2.84375 -3.47329,-0.69593 -7.83675,-0.40435 -10.09375,2.78125 -2.54891,4.51612 1.22589,8.85969 4.0625,12.21875 l -1.28125,3.125 -0.15625,0.125 c -2.25912,-1.73664 -4.45648,-3.65873 -7.0625,-4.875 -1.79587,-0.6367 -4.05328,-1.136589 -5.90625,-0.09375 -2.43257,2.08355 -3.02798,5.149487 -2.96875,8.21875 0.0571,3.18562 2.1462,6.525063 5.15625,7.625 4.97936,1.04284 8.28525,-3.69478 11.46875,-6.9375 0.57958,0.98572 1.22752,1.92591 1.75,2.96875 l -3.65625,6.6875 c -2.1999,2.83657 -3.2348,7.019669 -7,8.0625 -7.6425,2.02643 -16.32414,2.040589 -23.96875,0.59375 -2.08356,-0.6367 -4.8688,-0.604074 -5.96875,-3.09375 -2.20199,-3.41618 -4.29787,-6.944876 -6.09375,-10.59375 l 1.75,-2.78125 0.15625,-0.0625 c 1.79376,1.73664 3.95637,3.439968 6.15625,4.65625 1.85298,1.04284 4.22893,1.546101 6.3125,0.5625 2.37546,-0.9265 3.5227,-3.536166 3.8125,-5.96875 0.11634,-3.47328 0.10051,-7.683768 -2.96875,-10 -1.62242,-1.09994 -3.98538,-0.98584 -5.78125,-0.40625 -3.1835,1.44685 -5.62126,4.033011 -7.9375,6.8125 l -0.15625,0 -2.28125,-2.75 c 1.85298,-2.37545 3.61003,-4.77121 4.1875,-7.78125 0.34691,-1.85299 -0.28371,-3.511131 -1.5,-4.84375 -3.76308,-3.29984 -9.20578,-1.912322 -13.375,-0.40625 4.68958,15.34424 8.39397,31.269088 11,47.25 0.28961,1.404304 0.49091,3.057931 0.75,4.65625 l 200.125,0 c 1.273843,-7.837361 2.801178,-15.701142 4.625,-23.53125 l 4.40625,-16.96875 3.1875,-10.65625 c -1.09994,-0.40402 -2.278339,-0.89231 -3.4375,-1.125 -3.53252,-0.86725 -8.496269,-1.12953 -10.8125,2.34375 -2.25912,4.28555 0.968289,8.453438 3.34375,11.8125 -0.81226,0.9265 -1.56273,1.786857 -2.375,2.65625 -2.31622,-2.77949 -4.924288,-5.68998 -8.28125,-6.90625 -2.37545,-0.69383 -5.442201,-0.628731 -7.0625,1.6875 -1.96934,3.64885 -2.347601,8.672288 -0.4375,12.4375 1.2734,2.08355 3.6332,3.039782 6.125,2.75 3.41617,-0.86728 6.373499,-3.010307 9.09375,-5.5 l 0.28125,0 c 0.52247,0.98361 1.158481,1.832182 1.5625,2.875 -2.08354,3.76308 -4.112732,7.533258 -6.71875,11.125 -0.75303,1.21417 -2.184568,1.380499 -3.34375,1.84375 -7.0629,1.67741 -15.074021,1.756203 -22.3125,0.65625 -2.5489,-0.46325 -5.204121,-0.692311 -7,-2.71875 -3.01004,-4.16921 -5.21501,-8.64013 -7.53125,-13.15625 0.57748,-0.92649 1.121961,-2.033602 1.875,-2.84375 0.40402,0.3469 0.616452,0.74473 0.90625,1.09375 2.89369,2.95294 5.955898,7.313201 10.53125,5.75 3.01216,-1.33262 5.036642,-4.418907 5.09375,-7.71875 -0.05711,-3.18561 -0.684012,-6.780551 -3.8125,-8.34375 -4.7488,-1.21627 -8.436228,2.376771 -11.96875,5.15625 l -0.3125,0 -1.3125,-3.21875 c 2.77948,-2.95292 5.56554,-6.483769 4.8125,-10.59375 -0.46324,-2.20201 -2.786072,-3.766279 -4.8125,-4.34375 -3.35906,-0.57958 -7.76886,-0.69426 -9.96875,2.375 -2.95293,4.86304 1.607348,8.950282 4.15625,12.65625 l -1.3125,3.125 -0.1875,0.0625 c -2.77947,-2.66314 -5.726137,-5.73843 -9.375,-6.78125 -2.37334,-0.05925 -4.87524,1.121258 -5.6875,3.4375 -1.2163,3.64884 -1.31635,8.268054 0.59375,11.625 0.9265,1.21629 2.31182,2.281249 3.875,2.28125 4.28556,-0.17345 7.524359,-3.309002 10.1875,-6.4375 0.69592,0.9265 1.269548,2.013132 1.90625,2.9375 l -1.5,3.3125 c -1.91221,3.53252 -3.303501,7.279879 -5.96875,10.40625 -2.08355,1.27552 -4.50494,1.741462 -6.9375,2.03125 -4.51612,0.52036 -9.43004,0.475178 -14.0625,0.1875 -3.35905,-0.46324 -6.79169,-0.575861 -9.6875,-2.3125 -3.58962,-4.51824 -5.73446,-9.676888 -8.28125,-14.65625 0.6367,-0.9265 1.0961,-2.031481 1.90625,-2.84375 l 0.8125,0.75 c 3.12637,2.89582 6.62082,7.310016 11.3125,6.09375 2.66313,-1.04283 3.92896,-3.933878 4.21875,-6.65625 0.40614,-3.99364 -0.53326,-8.228952 -4.125,-10.3125 -2.72024,-0.86939 -5.07269,0.868929 -7.15625,2.375 -1.79586,1.04284 -2.97133,2.650051 -4.59375,3.75 -0.57747,-0.86727 -1.15638,-1.79226 -1.5625,-2.71875 2.25912,-4.1121 7.49282,-8.16296 4.65625,-13.375 -0.81016,-1.2163 -1.91736,-2.201658 -3.25,-2.78125 -1.67226,-0.557112 -3.55845,-0.876523 -5.375,-0.78125 z"
             style="fill:#ffcc00;fill-opacity:1;fill-rule:nonzero;stroke:none;stroke-width:1;stroke-miterlimit:4;stroke-dasharray:none" />
          <g
             id="g11771-6-0"
             style="fill:#cccccc;fill-opacity:1;stroke:none;stroke-width:1;stroke-miterlimit:4;stroke-dasharray:none">
            <path
               inkscape:connector-curvature="0"
               d="m 287.72734,373.48184 0.11633,0.17345 c 0.0592,2.66315 0.23269,5.0386 0.34691,7.58539 -2.43045,1.96932 -4.05287,4.6917 -3.53041,7.87518 0.81016,3.35907 2.95294,6.19565 5.03649,8.97513 -0.11635,0.23268 -0.11635,0.46324 -0.28979,0.57959 -2.77948,-2.60602 -5.67529,-5.09571 -9.32204,-5.73241 -2.31623,-0.3469 -4.34266,1.2734 -5.55895,3.18561 -2.37546,3.76308 -2.77948,9.78528 -0.3469,13.72182 1.04072,1.96932 3.06716,3.70597 5.32628,3.76519 4.22632,-0.0592 7.41192,-3.53252 10.4812,-6.25488 0.23267,0.11634 0.28978,0.40613 0.46324,0.63882 -2.02644,4.1671 -3.87943,8.45265 -6.54256,12.3913 -1.38974,1.91009 -3.82231,1.6203 -5.79163,2.25699 -7.17925,1.21629 -14.47697,1.09995 -21.42565,-0.3469 -3.93654,-0.6367 -4.74669,-4.97937 -6.48545,-7.75883 l -2.66313,-6.13855 c 0.0592,-0.17345 0.17345,-0.34691 0.34691,-0.52035 2.89581,3.29983 6.66101,6.31198 11.29347,5.49972 3.18349,-0.9265 4.97936,-4.22633 5.38338,-7.41194 0.40613,-4.34266 0.17557,-9.55259 -4.05288,-11.92806 -2.02643,-1.15705 -4.92225,-0.92648 -6.83234,0.3469 -2.25912,1.33265 -3.99577,3.18562 -5.96509,5.03861 -0.81014,-0.69381 0.17346,-1.15707 0.46324,-1.73664 2.37546,-3.18562 5.44262,-6.77524 3.99578,-11.00157 -0.6367,-1.91221 -2.43258,-3.59175 -4.28556,-4.28555 -0.34691,-0.2898 -0.17346,-0.75304 -0.28768,-1.09994 -0.17557,-1.73877 -0.34902,-3.70598 -0.46537,-5.55896 13.08723,-1.67953 26.46426,-2.54891 40.01473,-2.31623 l 0.57747,0.0571"
               style="fill:#d40000;fill-opacity:1;fill-rule:nonzero;stroke:none;stroke-width:1;stroke-miterlimit:4;stroke-dasharray:none"
               id="path3238-2-5" />
            <path
               inkscape:connector-curvature="0"
               d="m 342.04345,376.03076 c -0.23057,2.19988 -0.17346,4.39978 -0.69381,6.54256 -2.08566,0.6938 -4.16922,2.77946 -4.74881,4.92224 -0.92648,4.68958 2.60603,8.10575 5.03649,11.58115 -0.11423,0.23056 -0.11423,0.46324 -0.28768,0.6367 -3.59174,-3.24272 -7.70173,-8.10786 -12.91377,-5.50184 -4.45901,2.66525 -4.39979,8.28132 -3.82231,12.97088 0.46324,2.66315 2.202,5.44474 4.92226,6.36912 4.63245,0.92648 8.5711,-2.08356 11.52403,-5.3834 0.3469,0.23057 0.46324,0.81016 0.17345,1.15706 -1.73665,3.53252 -3.1856,7.23848 -5.26916,10.53832 -1.38974,2.43257 -4.1121,2.66525 -6.54467,3.18562 -4.63246,0.52035 -9.26493,0.81014 -13.95449,0.3469 -3.06927,-0.3469 -6.42833,-0.75305 -9.26492,-2.02644 -2.66313,-2.83659 -4.05287,-6.25276 -5.90585,-9.49548 l -1.79587,-3.82232 c 0.0592,-0.28979 0.23267,-0.52036 0.46323,-0.69592 3.70598,3.06926 7.70173,7.99152 12.97089,5.67529 3.47541,-2.19988 4.74881,-6.25277 4.57534,-10.19141 -0.17344,-3.76308 -1.50607,-7.75883 -5.09569,-9.55471 -3.82231,-0.92649 -7.12215,1.56319 -10.01796,3.82231 l -1.67954,1.62242 -0.40612,-0.57959 c 2.66524,-3.64886 6.54466,-7.52828 5.09569,-12.50764 -0.63669,-1.67954 -1.91009,-3.12639 -3.35694,-4.28556 0.11423,-2.5489 0.34691,-5.15282 0.40402,-7.81806 6.08143,-0.28768 12.16074,0.0592 18.06658,0.28979 7.35484,0.46324 15.23002,1.2734 22.52561,2.20201"
               style="fill:#d40000;fill-opacity:1;fill-rule:nonzero;stroke:none;stroke-width:1;stroke-miterlimit:4;stroke-dasharray:none"
               id="path3240-6-3" />
            <path
               inkscape:connector-curvature="0"
               d="m 235.38054,384.42629 c -1.85298,2.02644 -2.257,4.86303 -1.38973,7.35271 0.86938,2.60601 2.77948,4.92226 4.57534,6.89158 l -0.3469,0.81015 c -3.4754,-2.8366 -7.81808,-6.54256 -12.62398,-4.63246 -3.76308,2.20201 -4.05288,6.661 -4.11211,10.65466 0.11635,0.6388 0.11635,1.21628 0.2898,1.85298 0.57958,2.43256 2.14278,5.27128 4.80592,6.19566 5.15492,2.202 9.38125,-2.37335 12.56685,-5.96298 0.2898,0.11634 0.23058,0.46324 0.40402,0.6367 -2.19989,4.22632 -4.34266,8.57111 -7.46904,12.33419 -2.08355,1.73664 -4.97936,1.85299 -7.46905,2.37334 -5.55894,0.57958 -11.4077,0.57958 -17.08298,-0.34691 -2.14278,-0.57958 -4.80592,-0.69381 -6.07932,-3.06926 -1.96932,-2.89582 -3.53252,-6.0222 -5.21204,-9.09148 -0.0592,-0.3469 0.17345,-0.52034 0.3469,-0.81014 l 0.23268,0 c 3.1835,2.83658 6.83236,5.79163 11.34848,4.68957 2.5489,-0.52035 4.92225,-3.06927 5.4426,-5.55895 0.86938,-3.58964 0.57959,-7.41193 -0.86726,-10.71177 -1.33262,-2.54891 -4.1121,-4.16922 -7.06504,-3.82231 -3.99575,0.46324 -7.00579,3.58963 -9.78527,6.54467 -0.23268,0 -0.23268,-0.28979 -0.40613,-0.46325 1.38974,-2.202 2.95292,-4.28556 3.70596,-6.83445 10.01796,-8.80168 22.29292,-13.14434 35.14959,-15.46057 l 1.04071,6.42832"
               style="fill:#d40000;fill-opacity:1;fill-rule:nonzero;stroke:none;stroke-width:1;stroke-miterlimit:4;stroke-dasharray:none"
               id="path3242-0-6" />
            <path
               inkscape:connector-curvature="0"
               d="m 390.22103,393.98101 c 0.81015,2.48968 2.31623,4.68957 3.82231,6.88946 -0.0571,0.17345 -0.11634,0.40612 -0.34691,0.52247 -3.35906,-3.47541 -7.41193,-7.87518 -12.62398,-6.42833 -1.09995,0.28979 -1.96932,0.86938 -2.89581,1.50608 -3.1264,3.53251 -3.4733,8.62822 -2.43257,13.08723 0.63669,2.43045 2.77947,4.74668 5.21203,5.32627 4.51612,1.15917 8.51188,-1.96932 11.92806,-4.68957 0.75304,0.57958 -0.0571,1.33051 -0.23056,1.91009 -1.91222,3.30195 -3.53252,6.77524 -6.31199,9.61182 -3.93653,1.73876 -8.10575,1.96934 -12.50764,2.08567 -5.44261,-0.0592 -11.29136,-0.11633 -16.15649,-2.14278 -2.48969,-1.85298 -3.53041,-4.7488 -5.09571,-7.23848 l -3.01004,-5.67529 0.28979,-0.86726 c 3.12637,3.35694 6.77523,7.93229 11.75461,6.3691 3.47328,-0.86938 5.67528,-4.45902 5.96296,-7.81808 0.23268,-4.10997 -0.11423,-8.91589 -3.99364,-11.1179 -4.7488,-1.9672 -9.09147,1.56531 -12.56688,4.51824 -1.15705,-1.21628 1.15918,-2.08566 1.50608,-3.12849 2.02644,-2.5468 3.76308,-5.84874 2.77948,-9.2057 -0.23056,-1.04283 -0.92649,-1.85298 -1.50608,-2.66314 0.2898,-2.14277 0.75304,-4.34478 1.15918,-6.42832 12.91166,2.43256 25.07239,6.77523 35.2638,15.57691"
               style="fill:#d40000;fill-opacity:1;fill-rule:nonzero;stroke:none;stroke-width:1;stroke-miterlimit:4;stroke-dasharray:none"
               id="path3244-2-3" />
          </g>
        </g>
      </g>
      <g
         style="stroke:#000000"
         transform="matrix(2.6174391,0,0,2.6174391,677.11186,-96.829576)"
         id="g4606-2-3">
        <g
           style="stroke:#000000"
           id="g4549-8-4"
           transform="matrix(1.3290657,0,0,1.3250618,83.452625,-12.193344)">
          <g
             transform="translate(5.57455,-3.2894747)"
             id="g4235">
            <path
               sodipodi:nodetypes="ccccccccccccccccc"
               inkscape:connector-curvature="0"
               id="path4216-2"
               d="m -214.47355,75.83556 c -22.52727,3e-5 -40.78912,18.31772 -40.78876,40.91348 0.009,8.02805 2.37183,15.87613 6.79519,22.56675 -1.59516,-1.47175 -4.1662,-2.18445 -6.26174,-2.14762 -3.0314,0.0984 -6.08225,1.74347 -6.58504,5.89742 l -1.50482,12.35792 c 0.17042,7.51599 12.71924,6.70047 12.32069,0.37734 l 0,-1.6037 c 21.75155,20.72241 53.86266,18.33307 72.06975,0.33259 l -0.0737,1.27111 c -0.39855,6.32313 12.15028,7.13865 12.3207,-0.37734 l -1.50483,-12.35792 c -0.50279,-4.15395 -3.55364,-5.79901 -6.58504,-5.89742 -2.24463,-0.11122 -4.70835,0.64774 -6.21031,2.14462 4.42332,-6.68962 6.787,-14.53661 6.79667,-22.56381 3.2e-4,-22.59576 -18.26153,-40.91345 -40.7888,-40.91348 z"
               style="fill:#cccccc;fill-opacity:1;fill-rule:evenodd;stroke:#000000;stroke-width:0.37677208;stroke-linecap:butt;stroke-linejoin:miter;stroke-miterlimit:4;stroke-dasharray:none;stroke-opacity:1" />
            <ellipse
               ry="39.585812"
               rx="39.465809"
               cy="116.74785"
               cx="-214.5"
               id="ellipse4241"
               style="opacity:1;fill:#215184;fill-opacity:1;fill-rule:evenodd;stroke:#000000;stroke-width:0.47096509;stroke-linecap:square;stroke-linejoin:miter;stroke-miterlimit:4;stroke-dasharray:none;stroke-dashoffset:0;stroke-opacity:1;paint-order:markers stroke fill" />
            <ellipse
               style="opacity:1;fill:#cccccc;fill-opacity:1;fill-rule:evenodd;stroke:#000000;stroke-width:0.47096509;stroke-linecap:square;stroke-linejoin:miter;stroke-miterlimit:4;stroke-dasharray:none;stroke-dashoffset:0;stroke-opacity:1;paint-order:markers stroke fill"
               id="ellipse4243"
               cx="-214.5"
               cy="116.74785"
               rx="31.624132"
               ry="31.720291" />
            <ellipse
               ry="30.503201"
               rx="30.41073"
               cy="116.74785"
               cx="-214.5"
               id="ellipse4245"
               style="opacity:1;fill:#6aafda;fill-opacity:1;fill-rule:evenodd;stroke:#000000;stroke-width:0.47096509;stroke-linecap:square;stroke-linejoin:miter;stroke-miterlimit:4;stroke-dasharray:none;stroke-dashoffset:0;stroke-opacity:1;paint-order:markers stroke fill" />
            <g
               id="g4348">
              <path
                 style="fill:none;fill-rule:evenodd;stroke:#000000;stroke-width:0.37677208;stroke-linecap:butt;stroke-linejoin:miter;stroke-miterlimit:4;stroke-dasharray:none;stroke-opacity:1"
                 d="m -249.80833,154.8711 c -2.53518,-3.03322 -12.66095,-8.1334 -12.99143,0.4926"
                 id="path4327"
                 inkscape:connector-curvature="0"
                 sodipodi:nodetypes="cc" />
              <path
                 style="fill:url(#linearGradient4344);fill-opacity:1;fill-rule:evenodd;stroke:#000000;stroke-width:0.5349493;stroke-linecap:butt;stroke-linejoin:miter;stroke-miterlimit:4;stroke-dasharray:none;stroke-opacity:1"
                 d="m 8.640625,144.99805 0,3.64257 c 3.947006,-0.52961 6.386994,-0.34122 8.699794,1.38948 0.04606,-0.20775 0.110384,-0.4204 0.399815,-0.17268 -1.947899,-1.98575 -5.640974,-4.29909 -9.099609,-4.85937 z"
                 transform="matrix(0.75240825,0,0,0.75468178,-263.55217,41.353631)"
                 id="path4329"
                 inkscape:connector-curvature="0"
                 sodipodi:nodetypes="ccccc" />
              <path
                 style="opacity:1;fill:#b5b5b5;fill-opacity:1;stroke:none;stroke-width:0.01104854;stroke-miterlimit:4;stroke-dasharray:none;stroke-opacity:1"
                 d="m 8.5042511,157.99297 c -0.9322412,-0.0658 -1.9124687,-0.27248 -2.7219645,-0.57384 -2.0940499,-0.77957 -3.5479005,-2.20621 -4.1819635,-4.1037 -0.2348618,-0.70285 -0.377075,-1.58635 -0.3469014,-2.15515 0.025797,-0.48629 0.2076902,-1.87725 0.2897479,-2.21574 0.3692525,-1.52318 1.1140347,-2.62321 2.2145819,-3.27092 0.5230475,-0.30783 1.1305066,-0.50642 1.8849268,-0.61623 0.3345775,-0.0487 1.0920358,-0.066 1.5026019,-0.0343 0.3075652,0.0237 1.0384687,0.11709 1.1656213,0.14888 l 0.049719,0.0124 0,1.88936 0,1.88937 0.071815,-0.0128 c 0.1603482,-0.0286 1.3556545,-0.17017 1.6959515,-0.20087 1.552862,-0.1401 2.712135,-0.11922 3.756505,0.0676 0.803721,0.14381 1.486642,0.37514 2.185859,0.74044 0.31862,0.16646 0.809885,0.47063 0.938795,0.58125 l 0.07915,0.0679 0.0019,1.12695 c 0.002,1.19064 -0.0101,1.38938 -0.112089,1.84359 -0.446922,1.99043 -2.059727,3.54679 -4.496758,4.33939 -1.222311,0.39753 -2.658426,0.56953 -3.9774756,0.47638 l 7e-7,0 z"
                 id="path4346"
                 inkscape:connector-curvature="0"
                 transform="matrix(0.75240825,0,0,0.75468178,-263.55217,41.353631)" />
            </g>
            <g
               transform="matrix(-1,0,0,1,-428.91391,0)"
               id="g4353">
              <path
                 sodipodi:nodetypes="cc"
                 inkscape:connector-curvature="0"
                 id="path4355"
                 d="m -249.80833,155.17134 c -2.53518,-3.03322 -12.66095,-8.1334 -12.99143,0.4926"
                 style="fill:none;fill-rule:evenodd;stroke:#000000;stroke-width:0.37677208;stroke-linecap:butt;stroke-linejoin:miter;stroke-miterlimit:4;stroke-dasharray:none;stroke-opacity:1" />
              <path
                 sodipodi:nodetypes="ccccc"
                 inkscape:connector-curvature="0"
                 id="path4357"
                 d="m -257.05089,151.13093 0,2.74898 c 2.96976,-0.39968 4.80562,-0.25751 6.54579,1.04862 0.0347,-0.15678 0.0831,-0.31727 0.30083,-0.13032 -1.46562,-1.49861 -4.24432,-3.24444 -6.84662,-3.66728 z"
                 style="fill:url(#linearGradient4361);fill-opacity:1;fill-rule:evenodd;stroke:#000000;stroke-width:0.40310791;stroke-linecap:butt;stroke-linejoin:miter;stroke-miterlimit:4;stroke-dasharray:none;stroke-opacity:1" />
              <path
                 inkscape:connector-curvature="0"
                 id="path4359"
                 d="m -257.08698,160.68853 c -0.70143,-0.0486 -1.43896,-0.20144 -2.04803,-0.42423 -1.57558,-0.57634 -2.66947,-1.63106 -3.14654,-3.03387 -0.17672,-0.51962 -0.28372,-1.17279 -0.26102,-1.5933 0.0194,-0.35952 0.15627,-1.38785 0.21801,-1.6381 0.27783,-1.12609 0.83821,-1.93934 1.66627,-2.41819 0.39355,-0.22758 0.85061,-0.37439 1.41824,-0.45557 0.25174,-0.036 0.82165,-0.0488 1.13057,-0.0254 0.23141,0.0175 0.78135,0.0866 0.87702,0.11007 l 0.0374,0.009 0,1.3968 0,1.39681 0.054,-0.01 c 0.12065,-0.0212 1.02001,-0.1258 1.27605,-0.1485 1.16839,-0.10358 2.04063,-0.0882 2.82643,0.05 0.60472,0.10632 1.11856,0.27734 1.64466,0.5474 0.23973,0.12307 0.60936,0.34794 0.70635,0.42972 l 0.0596,0.0503 0.001,0.83316 c 0.001,0.88024 -0.008,1.02717 -0.0843,1.36296 -0.33627,1.47152 -1.54976,2.62214 -3.3834,3.20811 -0.91968,0.2939 -2.00022,0.42105 -2.99268,0.35219 l 0,0 z"
                 style="opacity:1;fill:#b5b5b5;fill-opacity:1;stroke:none;stroke-width:0.01104854;stroke-miterlimit:4;stroke-dasharray:none;stroke-opacity:1" />
            </g>
          </g>
          <path
             sodipodi:nodetypes="cccccccccccccccccccccccccccccccccccccccc"
             inkscape:connector-curvature="0"
             id="path4209"
             d="m -211.65749,100.80303 33.95097,-35.952677 0.006,6.585807 -1.97979,2.139363 0.0166,6.135 -3.22814,3.431096 -0.0568,5.963842 -17.23485,18.867049 14.67196,14.7163 c -0.58802,1.86122 -1.98297,2.85525 -4.32635,2.83005 -0.88115,2.41032 -2.70565,2.718 -4.70255,2.64139 -0.51728,1.13493 -4.70255,3.95782 -6.20737,0 l -3.05429,-7.35815 c -0.6194,-1.40342 -1.64019,-1.32779 -2.02446,-0.37734 l -2.7137,7.46629 c -0.12069,0.62146 -0.58423,1.04205 -0.89349,0.99052 -2.27338,-0.2911 -1.70951,1.55779 -1.10677,2.24215 0.79559,1.12364 1.40801,2.15332 0.71916,4.32797 -3.249,-2.95095 -6.32476,-4.55153 -9.92475,0.0667 -0.84983,0.49304 -1.40989,-0.68346 -1.39365,-0.9548 -0.98379,0.0711 -1.02573,-2.32957 0.31915,-3.35127 l 3.48559,-3.01971 1.72715,-7.39052 c 0.27834,-0.84417 -0.35302,-1.61978 -1.69292,-0.75468 l -11.82762,7.59063 c -0.9845,0.78034 -0.88209,1.34597 -0.58712,2.03156 -2.00257,-0.78806 -2.48319,-2.33939 -0.94051,-4.90543 0.0867,-0.77875 -0.10476,-1.61201 0.75241,-2.83005 l 4.29407,-5.3933 c 0.29956,-0.47945 1.34096,-0.97939 2.61258,-0.73376 l 4.77654,-6.90266 -18.83107,-20.36496 0.13301,-5.771617 -2.78189,-2.840519 0.0998,-5.364969 -2.65391,-2.72038 -0.29895,-0.30644 0.047,-6.579882 32.72977,34.149352 0,0"
             style="opacity:1;fill:#cccccc;fill-opacity:1;fill-rule:evenodd;stroke:#000000;stroke-width:0.37677208;stroke-linecap:butt;stroke-linejoin:miter;stroke-miterlimit:4;stroke-dasharray:none;stroke-opacity:1" />
          <g
             transform="translate(107.59438,-0.75468178)"
             style="stroke:#000000"
             id="g4217">
            <path
               style="fill:none;fill-rule:evenodd;stroke:#000000;stroke-width:0.37677208;stroke-linecap:butt;stroke-linejoin:miter;stroke-miterlimit:4;stroke-dasharray:none;stroke-opacity:1"
               d="m -311.59846,100.23702 22.84303,-24.384965 3.49126,-3.72693 0,0 0,0 0,0 0,0"
               id="path4213"
               inkscape:connector-curvature="0"
               sodipodi:nodetypes="ccccccc" />
            <path
               sodipodi:nodetypes="cccccc"
               inkscape:connector-curvature="0"
               id="path4215"
               d="m -309.2788,103.8139 22.07803,-23.409183 0,0 0,0 0,0 0,0"
               style="fill:none;fill-rule:evenodd;stroke:#000000;stroke-width:0.37677208;stroke-linecap:butt;stroke-linejoin:miter;stroke-miterlimit:4;stroke-dasharray:none;stroke-opacity:1" />
          </g>
          <g
             transform="matrix(-0.99994635,0.01038962,0.01032711,0.99994635,-528.3069,2.5395841)"
             id="g4221">
            <path
               sodipodi:nodetypes="ccc"
               inkscape:connector-curvature="0"
               id="path4223"
               d="m -311.59846,100.23702 22.84303,-24.384965 3.55016,-3.715749"
               style="fill:none;fill-rule:evenodd;stroke:#000000;stroke-width:0.37677208;stroke-linecap:butt;stroke-linejoin:miter;stroke-miterlimit:4;stroke-dasharray:none;stroke-opacity:1" />
            <path
               style="fill:none;fill-rule:evenodd;stroke:#000000;stroke-width:0.37677208;stroke-linecap:butt;stroke-linejoin:miter;stroke-miterlimit:4;stroke-dasharray:none;stroke-opacity:1"
               d="m -309.91056,103.82046 22.07803,-23.409179 0,0 0,0 0,0 0,0"
               id="path4225"
               inkscape:connector-curvature="0"
               sodipodi:nodetypes="cccccc" />
          </g>
          <path
             sodipodi:nodetypes="ccc"
             inkscape:connector-curvature="0"
             id="path4178"
             d="m -194.26667,128.08678 -6.11838,-9.2053 0,0"
             style="fill:none;fill-rule:evenodd;stroke:#000000;stroke-width:0.37677208;stroke-linecap:butt;stroke-linejoin:miter;stroke-miterlimit:4;stroke-dasharray:none;stroke-opacity:1" />
          <path
             sodipodi:nodetypes="ccc"
             inkscape:connector-curvature="0"
             id="path4180"
             d="m -190.0104,125.41858 -7.58148,-9.33871 0,0"
             style="fill:none;fill-rule:evenodd;stroke:#000000;stroke-width:0.37677208;stroke-linecap:butt;stroke-linejoin:miter;stroke-miterlimit:4;stroke-dasharray:none;stroke-opacity:1" />
          <path
             sodipodi:nodetypes="cccc"
             inkscape:connector-curvature="0"
             id="path4182"
             d="m -229.76231,123.53782 1.97508,-2.26405 -0.47026,2.26405 -1.58273,-0.0333"
             style="fill:none;fill-rule:evenodd;stroke:#000000;stroke-width:0.37677208;stroke-linecap:butt;stroke-linejoin:miter;stroke-miterlimit:4;stroke-dasharray:none;stroke-opacity:1" />
          <path
             sodipodi:nodetypes="cccc"
             inkscape:connector-curvature="0"
             id="path4184"
             d="m -221.13434,134.55717 c 0.67071,-3.30781 3.32318,-3.86133 4.92131,-5.20299 l 1.79561,-5.73664 0,0"
             style="fill:none;fill-rule:evenodd;stroke:#000000;stroke-width:0.37677208;stroke-linecap:butt;stroke-linejoin:miter;stroke-miterlimit:4;stroke-dasharray:none;stroke-opacity:1" />
          <text
             xml:space="preserve"
             style="font-style:normal;font-variant:normal;font-weight:400;font-size:3.3257432px;line-height:125%;font-family:Calibri;text-align:start;letter-spacing:0px;word-spacing:0px;text-anchor:start;fill:#000000;fill-opacity:1;stroke:none"
             transform="scale(0.99849258,1.0015097)"
             x="-341.83237"
             y="157.50584"
             id="text4191"
             sodipodi:linespacing="125%"><tspan
               sodipodi:role="line"
               x="0"
               y="0"
               id="tspan4193"><tspan
                 dx="0"
                 dy="0"
                 style="font-style:normal;font-variant:normal;font-weight:400;font-size:3.3257432px;font-family:Calibri;fill:#000000"
                 id="tspan4195" /></tspan></text>
          <path
             style="fill:#ffffff;fill-opacity:1;fill-rule:evenodd;stroke:#ffffff;stroke-width:0.07535442;stroke-miterlimit:4;stroke-dasharray:none"
             d="m -237.82868,135.85498 c -0.59281,0.32584 -1.18553,0.65006 -1.77759,0.97524 -0.67985,-1.04299 -1.35969,-2.08596 -2.03954,-3.12893 0.0437,-0.0286 0.0873,-0.0572 0.13089,-0.0858 0.0259,0.0397 0.051,0.0782 0.077,0.11808 0.0654,0.10037 0.14536,0.16892 0.23545,0.19803 0.0597,0.0222 0.1412,0.0221 0.2382,-0.008 0.0686,-0.02 0.22412,-0.10611 0.4661,-0.26479 1.05595,-0.69247 2.11188,-1.38493 3.16783,-2.0774 0.24513,-0.16074 0.39482,-0.2734 0.44227,-0.33089 0.0487,-0.0591 0.0793,-0.13547 0.0887,-0.22181 0.01,-0.0897 -0.0217,-0.18263 -0.0855,-0.28055 -0.0259,-0.0397 -0.0511,-0.0784 -0.077,-0.11805 0.0437,-0.0286 0.0873,-0.0572 0.13091,-0.0858 0.40818,0.6262 0.81638,1.25245 1.22458,1.87867 -0.0437,0.0286 -0.0873,0.0572 -0.1309,0.0858 -0.0329,-0.0506 -0.0661,-0.10149 -0.0999,-0.15317 -0.0655,-0.10045 -0.14544,-0.16904 -0.23645,-0.19756 -0.0598,-0.0222 -0.14041,-0.0225 -0.23951,0.006 -0.0671,0.0186 -0.22416,0.10433 -0.46612,0.263 -1.02264,0.67063 -2.04604,1.34175 -3.06867,2.01237 -0.24435,0.16024 -0.39282,0.27474 -0.44646,0.34012 -0.0551,0.0647 -0.0803,0.14077 -0.074,0.22176 0.006,0.0571 0.0653,0.16961 0.17379,0.33608 0.0626,0.096 0.12651,0.19408 0.19041,0.29211 0.1222,0.18747 0.27013,0.31556 0.43957,0.37902 0.17083,0.0659 0.38389,0.0851 0.63808,0.0459 0.25417,-0.0392 0.59556,-0.1357 1.02813,-0.30598 0.0231,0.0354 0.046,0.0706 0.0698,0.10702 z"
             id="path4197"
             inkscape:connector-curvature="0" />
          <path
             style="fill:#ffffff;fill-opacity:1;fill-rule:evenodd;stroke:#ffffff;stroke-width:0.07535442;stroke-miterlimit:4;stroke-dasharray:none"
             d="m -234.40331,134.07402 c 0.49761,0.52694 0.99429,1.05293 1.49093,1.57885 -0.0378,0.0359 -0.0757,0.0719 -0.11356,0.10787 -0.0253,-0.0268 -0.0496,-0.0525 -0.0748,-0.0793 -0.11298,-0.11964 -0.20652,-0.1867 -0.27987,-0.19677 -0.0767,-0.0121 -0.15631,0.002 -0.23117,0.04 -0.077,0.0348 -0.23636,0.16999 -0.4738,0.39555 -0.68129,0.64724 -1.36327,1.29514 -2.04526,1.94304 -0.37229,0.35368 -0.60332,0.61089 -0.68381,0.76761 -0.0826,0.15445 -0.11708,0.31978 -0.10968,0.4908 0.008,0.1702 0.0825,0.32793 0.21794,0.47137 0.15624,0.16546 0.34252,0.25889 0.55518,0.27821 0.2083,0.0161 0.43093,-0.0248 0.66491,-0.13644 0.23043,-0.11544 0.57039,-0.38031 1.01429,-0.80202 0.56773,-0.53935 1.13549,-1.07873 1.70322,-1.6181 0.18786,-0.17847 0.30646,-0.31973 0.36146,-0.42325 0.0519,-0.10389 0.0719,-0.19353 0.0622,-0.2659 -0.0146,-0.11112 -0.081,-0.22964 -0.19845,-0.35398 0.0378,-0.0359 0.0757,-0.0718 0.11354,-0.10786 0.33318,0.35282 0.66558,0.70483 0.99884,1.05775 -0.0378,0.0359 -0.0757,0.0719 -0.11354,0.10786 -0.0209,-0.0222 -0.0405,-0.0428 -0.0597,-0.0633 -0.0813,-0.0862 -0.17394,-0.13592 -0.27384,-0.14617 -0.0993,-0.0126 -0.21187,0.0104 -0.32932,0.0771 -0.0838,0.0411 -0.21305,0.14631 -0.38233,0.30714 -0.52921,0.50276 -1.05772,1.00484 -1.58626,1.50697 -0.48997,0.46549 -0.8655,0.77845 -1.1282,0.94126 -0.26347,0.15926 -0.57601,0.22785 -0.92854,0.22367 -0.35309,-0.008 -0.68304,-0.17306 -0.98371,-0.49148 -0.24842,-0.26307 -0.39451,-0.51608 -0.43435,-0.75033 -0.0483,-0.32075 -0.0186,-0.62107 0.11295,-0.89655 0.13061,-0.27644 0.36636,-0.57844 0.71387,-0.90859 0.68199,-0.64789 1.36397,-1.29579 2.04526,-1.94303 0.24086,-0.22883 0.38166,-0.38249 0.4214,-0.45656 0.0401,-0.0764 0.0531,-0.15392 0.0423,-0.23448 -0.01,-0.0777 -0.0777,-0.18738 -0.20143,-0.31293 0.0378,-0.0359 0.0757,-0.0718 0.11355,-0.10786 z"
             id="path4199"
             inkscape:connector-curvature="0" />
          <path
             style="fill:#ffffff;fill-opacity:1;fill-rule:evenodd;stroke:#ffffff;stroke-width:0.07535442;stroke-miterlimit:4;stroke-dasharray:none"
             d="m -229.41204,139.36508 c -0.49266,0.61647 -0.98529,1.2329 -1.47852,1.8501 0.0329,0.0264 0.0634,0.051 0.0955,0.0768 0.14444,0.11612 0.28702,0.18193 0.42685,0.19449 0.13917,0.0134 0.29854,-0.022 0.47591,-0.11327 0.1753,-0.093 0.37018,-0.24827 0.5819,-0.47524 0.0287,0.0231 0.0564,0.0453 0.0839,0.0675 -0.60232,0.75369 -1.20463,1.50737 -1.80635,2.26034 -0.0277,-0.0224 -0.0554,-0.0445 -0.0839,-0.0675 0.31124,-0.45281 0.45103,-0.80221 0.42688,-1.04584 -0.026,-0.24752 -0.12963,-0.43808 -0.3007,-0.57563 -0.0317,-0.0255 -0.0625,-0.0502 -0.0955,-0.0768 -0.36696,0.4592 -0.73451,0.91911 -1.10148,1.37831 -0.18318,0.22922 -0.28882,0.38434 -0.31421,0.45653 -0.0289,0.0694 -0.032,0.14726 -0.0118,0.23642 0.0176,0.0852 0.0733,0.1674 0.16449,0.24067 0.0369,0.0297 0.0728,0.0585 0.10961,0.0881 -0.0326,0.0408 -0.0652,0.0816 -0.0978,0.1224 -0.57175,-0.45968 -1.14254,-0.91858 -1.71328,-1.37746 0.0327,-0.0409 0.0652,-0.0815 0.0978,-0.12241 0.0368,0.0296 0.0729,0.0586 0.10974,0.0883 0.0933,0.075 0.19059,0.11529 0.28515,0.1148 0.0637,0.002 0.14106,-0.023 0.22272,-0.0829 0.0603,-0.0392 0.18023,-0.17068 0.36104,-0.39694 0.78906,-0.98736 1.57811,-1.97473 2.36719,-2.96211 0.18316,-0.2292 0.29052,-0.38295 0.31774,-0.45245 0.0293,-0.0703 0.0345,-0.15251 0.0165,-0.23769 -0.0187,-0.0883 -0.077,-0.16678 -0.16818,-0.24006 -0.0369,-0.0297 -0.0728,-0.0585 -0.10976,-0.0882 0.0326,-0.0408 0.0652,-0.0816 0.0978,-0.12241 0.92125,0.74068 1.84246,1.48133 2.76358,2.2219 -0.34385,0.43027 -0.68828,0.86124 -1.03212,1.29151 -0.0339,-0.0273 -0.0656,-0.0527 -0.0994,-0.0798 0.22078,-0.31843 0.34056,-0.59249 0.36674,-0.81273 0.0251,-0.22107 -0.0284,-0.42981 -0.15617,-0.63241 -0.069,-0.11161 -0.23487,-0.27034 -0.4972,-0.48124 -0.10154,-0.0817 -0.20289,-0.16313 -0.3044,-0.24476 z"
             id="path4201"
             inkscape:connector-curvature="0" />
          <path
             style="fill:#ffffff;fill-opacity:1;fill-rule:evenodd;stroke:#ffffff;stroke-width:0.07535442;stroke-miterlimit:4;stroke-dasharray:none"
             d="m -223.05746,142.88008 c -0.24907,0.4572 -0.49722,0.91272 -0.7463,1.36993 -0.0323,-0.0177 -0.0645,-0.0354 -0.0969,-0.0531 0.11621,-0.34803 0.17306,-0.61153 0.1786,-0.78942 0.006,-0.17631 -0.0357,-0.33811 -0.11172,-0.487 -0.0435,-0.0822 -0.15337,-0.1718 -0.3251,-0.26592 -0.091,-0.0499 -0.18318,-0.1004 -0.27311,-0.14968 -0.70947,1.30232 -1.4185,2.60384 -2.12798,3.90617 -0.14044,0.2578 -0.21945,0.42793 -0.23223,0.50326 -0.0159,0.0737 -0.003,0.15191 0.0304,0.23551 0.0323,0.0807 0.10015,0.15129 0.2062,0.20942 0.0404,0.0221 0.0818,0.0448 0.12218,0.067 -0.025,0.0459 -0.05,0.0917 -0.075,0.13766 -0.64304,-0.35243 -1.28492,-0.70423 -1.92797,-1.05666 0.025,-0.046 0.05,-0.0917 0.075,-0.13766 0.0404,0.0221 0.0817,0.0448 0.12216,0.067 0.10596,0.0581 0.20767,0.0801 0.30079,0.0631 0.0631,-0.009 0.13496,-0.0473 0.20957,-0.11807 0.0491,-0.0512 0.14755,-0.19973 0.28618,-0.45419 0.70948,-1.30234 1.4185,-2.60384 2.12798,-3.90619 -0.0886,-0.0485 -0.17858,-0.0979 -0.26622,-0.14591 -0.24776,-0.13578 -0.47039,-0.16664 -0.65813,-0.0801 -0.26598,0.11748 -0.52611,0.34761 -0.76965,0.69842 -0.0337,-0.0185 -0.069,-0.0378 -0.10264,-0.0562 0.24908,-0.45721 0.49723,-0.91273 0.74631,-1.36994 1.10177,0.60385 2.20574,1.2089 3.30751,1.81275 z"
             id="path4203"
             inkscape:connector-curvature="0" />
          <path
             style="fill:#ffffff;fill-opacity:1;fill-rule:evenodd;stroke:#ffffff;stroke-width:0.07535442;stroke-miterlimit:4;stroke-dasharray:none"
             d="m -220.1701,144.52305 c -0.25444,0.74771 -0.50886,1.4954 -0.7636,2.244 0.0373,0.0128 0.0748,0.0256 0.11438,0.0392 0.17522,0.06 0.33296,0.0737 0.46618,0.037 0.13544,-0.0349 0.27347,-0.12236 0.41052,-0.2683 0.13203,-0.14768 0.26262,-0.36016 0.38623,-0.64532 0.0337,0.0115 0.0672,0.023 0.10185,0.0348 -0.31107,0.91415 -0.62215,1.8283 -0.93292,2.74156 -0.0348,-0.0119 -0.0684,-0.0234 -0.10186,-0.0349 0.13927,-0.53195 0.15356,-0.90779 0.0467,-1.12912 -0.10827,-0.22391 -0.27162,-0.36825 -0.47793,-0.43888 -0.0396,-0.0135 -0.0771,-0.0264 -0.1144,-0.0392 -0.18953,0.55695 -0.37936,1.11478 -0.56888,1.67174 -0.0946,0.27802 -0.14357,0.45918 -0.14337,0.53559 -0.003,0.0752 0.0224,0.15026 0.0699,0.22686 0.0455,0.0741 0.12456,0.13204 0.23626,0.17028 0.0435,0.0149 0.0882,0.0302 0.13176,0.0452 -0.0169,0.0495 -0.0336,0.099 -0.0505,0.14847 -0.6923,-0.23701 -1.38458,-0.47402 -2.07686,-0.71102 0.0169,-0.0496 0.0336,-0.0989 0.0505,-0.14847 0.0434,0.0149 0.0882,0.0302 0.13175,0.0451 0.11442,0.0392 0.21835,0.0435 0.30711,0.0108 0.0607,-0.0194 0.12486,-0.0697 0.18278,-0.1534 0.042,-0.058 0.11148,-0.22202 0.20487,-0.49646 0.40752,-1.19757 0.81504,-2.39514 1.22258,-3.59274 0.0946,-0.278 0.14347,-0.45919 0.14571,-0.53376 0.004,-0.0762 -0.0192,-0.15519 -0.065,-0.22918 -0.0488,-0.0772 -0.12912,-0.13064 -0.24086,-0.1689 -0.0433,-0.0149 -0.0882,-0.0302 -0.13176,-0.0451 0.0169,-0.0495 0.0336,-0.0989 0.0505,-0.14847 1.11738,0.38254 2.23339,0.76461 3.35076,1.14715 -0.17759,0.52187 -0.35547,1.04461 -0.53306,1.56647 -0.04,-0.0137 -0.0796,-0.0273 -0.12063,-0.0413 0.0998,-0.37473 0.11955,-0.67331 0.072,-0.88851 -0.0538,-0.21732 -0.17489,-0.39541 -0.36232,-0.54192 -0.10399,-0.0819 -0.31386,-0.17466 -0.62947,-0.28271 -0.12318,-0.0422 -0.24611,-0.0842 -0.36922,-0.1264 z"
             id="path4205"
             inkscape:connector-curvature="0" />
          <path
             style="fill:#ffffff;fill-opacity:1;fill-rule:evenodd;stroke:#ffffff;stroke-width:0.07535442;stroke-miterlimit:4;stroke-dasharray:none"
             d="m -214.81853,145.52649 c 0.6694,0.0389 1.18639,0.36318 1.53437,0.97699 0.3481,0.61382 0.48257,1.34579 0.39005,2.19641 -0.0791,0.72774 -0.30787,1.3473 -0.67364,1.86962 -0.48199,0.68942 -1.10927,0.99184 -1.85861,0.90984 -0.75198,-0.0823 -1.30148,-0.49628 -1.62748,-1.23964 -0.25549,-0.59034 -0.3541,-1.2629 -0.27166,-2.02089 0.0925,-0.85062 0.38879,-1.53356 0.86643,-2.06275 0.47704,-0.52354 1.02803,-0.73105 1.64054,-0.62958 z m 0.007,0.27431 c -0.38116,-0.0417 -0.70267,0.19282 -0.95705,0.71009 -0.2096,0.42081 -0.36178,1.04301 -0.45142,1.86717 -0.1063,0.97726 -0.0542,1.7136 0.13975,2.21302 0.13699,0.34399 0.36707,0.53556 0.68036,0.56984 0.21156,0.0232 0.39672,-0.0275 0.55316,-0.1537 0.1976,-0.1639 0.37207,-0.43363 0.51466,-0.82162 0.14188,-0.38232 0.24773,-0.89292 0.31722,-1.53182 0.0824,-0.75798 0.0925,-1.33453 0.0313,-1.72184 -0.0557,-0.38675 -0.16567,-0.66273 -0.30275,-0.83649 -0.13952,-0.17592 -0.31914,-0.2721 -0.5254,-0.29467 z"
             id="path4207"
             inkscape:connector-curvature="0" />
          <path
             style="fill:#ffffff;fill-opacity:1;fill-rule:evenodd;stroke:#ffffff;stroke-width:0.07535442;stroke-miterlimit:4;stroke-dasharray:none"
             d="m -209.63372,149.28872 c 0,0.54002 0,1.07812 0,1.61815 0,0.30995 0.0159,0.50578 0.0421,0.58755 0.0291,0.0799 0.0763,0.14839 0.14705,0.19583 0.071,0.0476 0.19959,0.0723 0.39407,0.0723 0,0.0512 0,0.10454 0,0.15594 -0.71707,0 -1.43412,0 -2.14854,0 0,-0.0512 0,-0.10455 0,-0.15594 0.19423,0 0.32303,-0.0247 0.39395,-0.0759 0.0684,-0.0494 0.11824,-0.1121 0.14705,-0.19205 0.0261,-0.0817 0.0395,-0.27761 0.0395,-0.58756 0,-1.24926 0,-2.49658 0,-3.74586 0,-0.30994 -0.012,-0.51147 -0.0395,-0.59134 -0.0291,-0.08 -0.0787,-0.14452 -0.14955,-0.19014 -0.071,-0.0494 -0.19956,-0.0741 -0.39139,-0.0741 0,-0.0512 0,-0.10455 0,-0.15592 0.64876,0 1.3001,0 1.94887,0 0.50692,0 0.87984,0.0438 1.11366,0.14451 0.2337,0.0989 0.43064,0.27 0.57786,0.53241 0.14435,0.25858 0.22049,0.56471 0.22049,0.91459 0,0.42403 -0.11264,0.7777 -0.33349,1.0553 -0.14189,0.17495 -0.34149,0.30424 -0.5962,0.3955 0.33095,0.65221 0.67763,1.30061 1.00847,1.95279 0.12869,0.25288 0.22603,0.40883 0.2811,0.47346 0.0814,0.0893 0.1812,0.13496 0.29409,0.14451 0,0.0512 0,0.10454 0,0.15591 -0.44115,0 -0.88248,0 -1.3211,0 -0.44384,-0.87847 -0.91138,-1.75124 -1.35252,-2.6297 -0.0919,0 -0.1839,0 -0.27591,0 z m 0,-2.82934 c 0,0.84232 0,1.68469 0,2.52704 0.0577,0 0.11822,0 0.176,0 0.28894,0 0.50159,-0.0361 0.64345,-0.11041 0.14188,-0.0723 0.25473,-0.19965 0.33884,-0.39168 0.0787,-0.18634 0.11825,-0.43354 0.11825,-0.73586 0,-0.43736 -0.0762,-0.76438 -0.22067,-0.97356 -0.14968,-0.21106 -0.3939,-0.31563 -0.7249,-0.31563 -0.11038,0 -0.22064,0 -0.33096,0 z"
             id="path4209-9"
             inkscape:connector-curvature="0" />
          <path
             style="fill:#ffffff;fill-opacity:1;fill-rule:evenodd;stroke:#ffffff;stroke-width:0.07535442;stroke-miterlimit:4;stroke-dasharray:none"
             d="m -202.37722,145.47208 c 0.13358,0.62675 0.26742,1.25537 0.39912,1.88248 -0.0415,0.008 -0.0826,0.0161 -0.12368,0.0241 -0.14817,-0.46119 -0.37181,-0.81471 -0.65216,-1.06032 -0.28589,-0.24648 -0.56309,-0.33778 -0.83112,-0.28557 -0.20628,0.0402 -0.35684,0.14693 -0.44619,0.32129 -0.0887,0.17804 -0.11901,0.36601 -0.0813,0.56199 0.0242,0.12501 0.0692,0.23445 0.12929,0.32154 0.0814,0.11781 0.20207,0.22794 0.35876,0.333 0.11073,0.0753 0.36588,0.19024 0.7521,0.36101 0.54358,0.23693 0.9351,0.47639 1.15327,0.73218 0.22393,0.25855 0.37078,0.57475 0.4427,0.94618 0.0914,0.47227 0.0336,0.90579 -0.1633,1.29858 -0.20173,0.39571 -0.51164,0.63233 -0.92422,0.7127 -0.13159,0.0256 -0.25854,0.033 -0.37919,0.0176 -0.12094,-0.0148 -0.28286,-0.0513 -0.47298,-0.1209 -0.10838,-0.0353 -0.19377,-0.0475 -0.25818,-0.0353 -0.0514,0.01 -0.10287,0.0491 -0.1492,0.11433 -0.0458,0.0672 -0.0808,0.16293 -0.0948,0.28384 -0.0361,0.007 -0.0748,0.0145 -0.11107,0.0216 -0.13806,-0.71304 -0.27611,-1.42606 -0.41417,-2.1391 0.0361,-0.007 0.0747,-0.0145 0.11106,-0.0216 0.2045,0.58581 0.47073,1.00848 0.78447,1.27473 0.30903,0.26909 0.61528,0.37213 0.91173,0.31439 0.22692,-0.0442 0.39155,-0.16154 0.49497,-0.35984 0.0983,-0.19733 0.1272,-0.40634 0.0835,-0.63221 -0.026,-0.13436 -0.0739,-0.25871 -0.14989,-0.3737 -0.0756,-0.115 -0.1793,-0.22076 -0.30701,-0.31403 -0.12733,-0.0915 -0.34347,-0.19847 -0.64432,-0.32968 -0.41869,-0.18576 -0.73755,-0.34056 -0.93216,-0.48862 -0.19756,-0.1494 -0.36436,-0.32028 -0.49204,-0.52398 -0.13113,-0.20691 -0.22402,-0.43868 -0.27498,-0.70185 -0.0871,-0.44986 -0.0378,-0.85848 0.13765,-1.22386 0.17528,-0.36536 0.45181,-0.58195 0.82048,-0.65376 0.13162,-0.0256 0.267,-0.0307 0.39971,-0.008 0.10199,0.0149 0.23255,0.0535 0.38622,0.11461 0.15214,0.0673 0.2565,0.0953 0.31321,0.0842 0.049,-0.01 0.0884,-0.0403 0.11064,-0.0913 0.0196,-0.0523 0.0294,-0.16278 0.0226,-0.33952 0.031,-0.006 0.0591,-0.0115 0.0901,-0.0175 z"
             id="path4211"
             inkscape:connector-curvature="0" />
          <path
             style="fill:#ffffff;fill-opacity:1;fill-rule:evenodd;stroke:#ffffff;stroke-width:0.07535442;stroke-miterlimit:4;stroke-dasharray:none"
             d="m -196.07778,143.63637 c 0.0167,0.0484 0.0341,0.0987 0.051,0.1473 -0.13231,0.0843 -0.22568,0.23156 -0.27454,0.45189 -0.0358,0.16127 -0.0523,0.52345 -0.0401,1.0727 0.0349,1.54583 0.0427,3.09492 0.0774,4.64075 -0.0322,0.0112 -0.0647,0.0225 -0.0968,0.0337 -0.94474,-1.29129 -1.91552,-2.56947 -2.8601,-3.86082 -0.34219,-0.46657 -0.5596,-0.73302 -0.64588,-0.80565 -0.0868,-0.0745 -0.21285,-0.093 -0.37803,-0.0636 -0.0167,-0.0484 -0.0341,-0.0987 -0.051,-0.14729 0.6353,-0.22125 1.26791,-0.44157 1.90317,-0.6628 0.0168,0.0484 0.0342,0.0987 0.051,0.14728 -0.0226,0.008 -0.0447,0.0155 -0.0645,0.0224 -0.17369,0.0606 -0.28031,0.1299 -0.31878,0.21158 -0.0309,0.0551 -0.0346,0.12476 -0.008,0.20023 0.0168,0.0484 0.0464,0.10042 0.0833,0.16016 0.0388,0.0631 0.15407,0.22005 0.34042,0.47723 0.58822,0.80758 1.19619,1.60828 1.78503,2.41767 -0.0235,-0.89554 -0.0287,-1.79346 -0.0523,-2.68899 -0.01,-0.32478 -0.0173,-0.53957 -0.0315,-0.64521 -0.0155,-0.10932 -0.0319,-0.19618 -0.0562,-0.26625 -0.028,-0.0807 -0.0673,-0.1456 -0.1206,-0.1955 -0.051,-0.0509 -0.11156,-0.082 -0.18503,-0.0926 -0.10061,-0.0173 -0.22025,-0.002 -0.35662,0.0459 -0.0167,-0.0484 -0.0342,-0.0987 -0.051,-0.14729 0.43172,-0.15036 0.86584,-0.30154 1.30008,-0.45277 z"
             id="path4213-4"
             inkscape:connector-curvature="0" />
          <path
             style="fill:#ffffff;fill-opacity:1;fill-rule:evenodd;stroke:#ffffff;stroke-width:0.07535442;stroke-miterlimit:4;stroke-dasharray:none"
             d="m -192.05726,146.33509 c -0.44516,0.21422 -0.89272,0.4296 -1.33787,0.64381 0.0283,0.19303 0.0547,0.38913 0.0832,0.58211 0.0291,0.19474 0.0688,0.34438 0.12209,0.45582 0.0697,0.14572 0.1632,0.2315 0.28209,0.26075 0.0701,0.019 0.20732,-0.0111 0.41599,-0.0863 0.0221,0.0462 0.0451,0.0942 0.0672,0.14057 -0.41912,0.20169 -0.83826,0.40339 -1.25736,0.60507 -0.0221,-0.0462 -0.0451,-0.0943 -0.0672,-0.14057 0.12182,-0.0924 0.19695,-0.2276 0.22144,-0.3955 0.0245,-0.16793 0.0136,-0.48318 -0.0519,-0.93671 -0.22054,-1.60005 -0.41173,-3.20576 -0.63156,-4.804 0.019,-0.009 0.0355,-0.0171 0.052,-0.025 1.12818,1.20752 2.27849,2.4002 3.40509,3.6106 0.32303,0.34016 0.55402,0.54323 0.68694,0.60792 0.10252,0.0497 0.2147,0.0526 0.33641,0.009 0.0221,0.0462 0.0451,0.0942 0.0672,0.14056 -0.61336,0.29517 -1.22194,0.58803 -1.83281,0.882 -0.0221,-0.0462 -0.0451,-0.0943 -0.0672,-0.14057 0.0262,-0.0126 0.052,-0.025 0.0757,-0.0365 0.14925,-0.0718 0.24025,-0.14944 0.27011,-0.23335 0.0195,-0.0622 0.0131,-0.13064 -0.023,-0.20615 -0.0221,-0.0462 -0.0533,-0.0883 -0.0857,-0.13595 -0.0105,-0.0201 -0.0898,-0.10235 -0.22214,-0.2453 -0.16734,-0.18521 -0.34163,-0.36706 -0.50893,-0.55227 z m -0.23076,-0.23908 c -0.47097,-0.50936 -0.95206,-1.00968 -1.4205,-1.52028 0.0943,0.69064 0.17993,1.38127 0.27436,2.07184 0.38121,-0.18345 0.76482,-0.36805 1.14614,-0.55156 z"
             id="path4215-9"
             inkscape:connector-curvature="0" />
          <path
             style="fill:#ffffff;fill-opacity:1;fill-rule:evenodd;stroke:#ffffff;stroke-width:0.07535442;stroke-miterlimit:4;stroke-dasharray:none"
             d="m -188.48642,142.87845 c 0.31546,0.4376 0.6298,0.87367 0.94526,1.31128 0.18107,0.25117 0.30843,0.40046 0.3793,0.44997 0.068,0.0492 0.14624,0.0771 0.23155,0.0737 0.0853,-0.003 0.20597,-0.0601 0.36143,-0.1729 0.0299,0.0415 0.061,0.0847 0.0911,0.12637 -0.5789,0.41984 -1.15997,0.84126 -1.74105,1.26266 -0.0299,-0.0415 -0.0611,-0.0847 -0.0911,-0.12636 0.15753,-0.11425 0.24947,-0.2114 0.27703,-0.29458 0.0264,-0.0802 0.0299,-0.16032 0.005,-0.24058 -0.0242,-0.0833 -0.12798,-0.24975 -0.30904,-0.50093 -0.72978,-1.01236 -1.45842,-2.02313 -2.18821,-3.0355 -0.18106,-0.25117 -0.30851,-0.40742 -0.37964,-0.45439 -0.0681,-0.0494 -0.14618,-0.0723 -0.23022,-0.0677 -0.0865,0.002 -0.20722,0.0588 -0.36262,0.17155 -0.0299,-0.0415 -0.0611,-0.0847 -0.091,-0.12636 0.52788,-0.38285 1.05353,-0.76406 1.58144,-1.14692 0.41079,-0.29792 0.73854,-0.48157 0.98687,-0.53739 0.24714,-0.0572 0.50467,-0.0328 0.77714,0.0933 0.27019,0.12312 0.51072,0.32647 0.71511,0.61 0.24771,0.34362 0.36069,0.6981 0.34622,1.05116 -0.0123,0.22518 -0.10111,0.44873 -0.25429,0.67248 0.64924,0.334 1.31111,0.65412 1.95814,0.98967 0.25406,0.12786 0.42399,0.19701 0.5064,0.217 0.11813,0.0245 0.22569,0.002 0.32285,-0.0558 0.0299,0.0415 0.0611,0.0847 0.091,0.12634 -0.35761,0.25936 -0.7152,0.5187 -1.07272,0.77799 -0.87298,-0.45094 -1.7595,-0.88502 -2.63233,-1.33605 -0.0725,0.0525 -0.14901,0.10807 -0.22347,0.16207 z m -1.65281,-2.29279 c 0.49206,0.68259 0.98414,1.36521 1.47622,2.04781 0.049,-0.0355 0.0959,-0.0695 0.14465,-0.10491 0.232,-0.16825 0.38538,-0.32404 0.45696,-0.46765 0.0706,-0.14039 0.0897,-0.31148 0.0436,-0.51496 -0.0452,-0.19719 -0.15528,-0.42236 -0.33189,-0.66736 -0.2555,-0.35441 -0.5082,-0.57469 -0.74969,-0.65769 -0.24244,-0.0846 -0.50145,-0.0261 -0.76965,0.16869 -0.0894,0.0649 -0.18087,0.13117 -0.27028,0.19602 z"
             id="path4217"
             inkscape:connector-curvature="0" />
          <path
             style="fill:#ffffff;fill-opacity:1;fill-rule:evenodd;stroke:#ffffff;stroke-width:0.07535442;stroke-miterlimit:4;stroke-dasharray:none"
             d="m -185.71014,136.93019 c 0.55345,0.55275 1.10692,1.10551 1.66038,1.65825 0.0187,-0.0188 0.0389,-0.0392 0.0594,-0.0598 0.18717,-0.18854 0.24376,-0.40721 0.16324,-0.65488 -0.0792,-0.2464 -0.26408,-0.54243 -0.55749,-0.8802 0.0279,-0.0281 0.0555,-0.0559 0.0834,-0.0841 0.71199,0.71108 1.42397,1.42214 2.13595,2.1332 -0.0278,0.0281 -0.0556,0.056 -0.0833,0.084 -0.24928,-0.21512 -0.47996,-0.36808 -0.68179,-0.46119 -0.20337,-0.0916 -0.37082,-0.12505 -0.49602,-0.1013 -0.12439,0.0204 -0.25814,0.10647 -0.399,0.24835 0.38419,0.38372 0.7657,0.76472 1.14856,1.1471 0.22703,0.22673 0.36912,0.35306 0.4347,0.38941 0.0624,0.0396 0.1288,0.0508 0.19947,0.047 0.0692,-0.005 0.14656,-0.0508 0.23181,-0.13657 0.0595,-0.0599 0.11677,-0.11764 0.17605,-0.17735 0.27795,-0.27998 0.41306,-0.5913 0.40254,-0.93636 -0.0153,-0.34278 -0.15878,-0.73478 -0.44835,-1.16529 0.026,-0.0261 0.0537,-0.0541 0.0815,-0.0821 0.38692,0.47531 0.77298,0.95414 1.16159,1.42769 -0.85433,0.86061 -1.70675,1.7193 -2.55929,2.57811 -0.0362,-0.0361 -0.0739,-0.0738 -0.11015,-0.11002 0.0312,-0.0316 0.0648,-0.0653 0.0965,-0.0972 0.0871,-0.0876 0.13598,-0.18008 0.14442,-0.27206 0.0121,-0.0659 -0.005,-0.14598 -0.0562,-0.23445 -0.0335,-0.0633 -0.14923,-0.19731 -0.35477,-0.40258 -0.89333,-0.89218 -1.78801,-1.7857 -2.68135,-2.6779 -0.18404,-0.1838 -0.30528,-0.29073 -0.35117,-0.32807 -0.0832,-0.0535 -0.16471,-0.0792 -0.24413,-0.0801 -0.11146,-0.003 -0.21608,0.0479 -0.31248,0.14505 -0.0313,0.0316 -0.0648,0.0653 -0.0964,0.0971 -0.0362,-0.0361 -0.0739,-0.0738 -0.11014,-0.11001 0.8265,-0.83257 1.65123,-1.66336 2.47776,-2.49596 0.40165,0.40114 0.80332,0.80228 1.205,1.20344 -0.0278,0.0281 -0.0556,0.056 -0.0835,0.0841 -0.33626,-0.25416 -0.60386,-0.40227 -0.81013,-0.45591 -0.20623,-0.0537 -0.40879,-0.0329 -0.60834,0.0468 -0.11707,0.0426 -0.28861,0.18004 -0.51287,0.40594 -0.10197,0.10273 -0.20383,0.20534 -0.30583,0.30809 z"
             id="path4219"
             inkscape:connector-curvature="0" />
          <path
             style="fill:#ffffff;fill-opacity:1;fill-rule:evenodd;stroke:#ffffff;stroke-width:0.07535442;stroke-miterlimit:4;stroke-dasharray:none"
             d="m -181.28124,131.00017 c 0.42097,0.30522 0.8404,0.60931 1.26137,0.91451 -0.0215,0.0299 -0.043,0.0598 -0.0647,0.0897 -0.32869,-0.1606 -0.58241,-0.24996 -0.75906,-0.27746 -0.1737,-0.0284 -0.33819,-0.008 -0.49506,0.0507 -0.0859,0.0319 -0.19074,0.13151 -0.30307,0.28739 -0.0616,0.0853 -0.1231,0.17082 -0.18305,0.25401 1.19991,0.86996 2.39828,1.73879 3.59664,2.60762 0.23814,0.17266 0.39574,0.27208 0.46865,0.29424 0.0693,0.0272 0.14912,0.0235 0.23516,0.002 0.0848,-0.0231 0.16456,-0.0822 0.23538,-0.18051 0.026,-0.0362 0.0537,-0.0746 0.0816,-0.11317 0.0414,0.03 0.0845,0.0612 0.12599,0.0913 -0.42935,0.59578 -0.8586,1.19141 -1.28787,1.78709 -0.0414,-0.03 -0.0845,-0.0613 -0.12599,-0.0913 0.0277,-0.0385 0.0553,-0.0767 0.0816,-0.11317 0.0708,-0.0983 0.10459,-0.19721 0.10015,-0.29139 -3.4e-4,-0.0649 -0.0291,-0.14131 -0.0906,-0.22491 -0.0444,-0.0553 -0.17968,-0.16939 -0.41474,-0.33982 -1.19837,-0.86883 -2.39675,-1.73768 -3.59665,-2.60763 -0.0584,0.0811 -0.11838,0.16427 -0.17689,0.24547 -0.16465,0.22848 -0.2232,0.44611 -0.16044,0.64451 0.0814,0.27989 0.27632,0.5676 0.59434,0.85337 -0.0231,0.0321 -0.0462,0.064 -0.0693,0.0961 -0.42098,-0.30522 -0.8404,-0.60932 -1.26135,-0.91451 0.73542,-1.02049 1.47247,-2.04326 2.2079,-3.06375 z"
             id="path4221"
             inkscape:connector-curvature="0" />
          <g
             transform="translate(0,0.18867044)"
             id="g4363">
            <path
               inkscape:connector-curvature="0"
               id="path4223-2"
               d="m -246.6461,141.01091 c -0.0532,0.88649 -0.0858,1.77703 -0.13953,2.66224 -0.023,0.3734 -0.003,0.64485 0.0445,0.81208 0.0334,0.11849 0.0977,0.20607 0.18466,0.25779 -0.0247,0.0417 -0.0494,0.0835 -0.0742,0.12536 -0.5233,-0.31147 -1.04751,-0.62348 -1.57174,-0.93551 0.0248,-0.0418 0.0495,-0.0836 0.0742,-0.12536 0.10823,0.046 0.18779,0.0604 0.23637,0.043 0.0486,-0.0173 0.0861,-0.0485 0.11655,-0.10014 0.0562,-0.0949 0.0904,-0.31687 0.11318,-0.65973 0.0352,-0.5798 0.0574,-1.16126 0.0931,-1.74187 -0.0643,0.0264 -0.13037,0.052 -0.19557,0.0777 -0.24757,0.41845 -0.4961,0.83853 -0.74414,1.25778 -0.14242,0.24074 -0.2222,0.39564 -0.23829,0.4651 -0.017,0.068 -0.0129,0.13835 0.0135,0.20955 0.0245,0.0753 0.0927,0.14364 0.20311,0.20937 -0.0247,0.0417 -0.0494,0.0835 -0.0742,0.12535 -0.50723,-0.30191 -1.01445,-0.6038 -1.52168,-0.90571 0.0248,-0.0418 0.0495,-0.0836 0.0742,-0.12534 0.0332,0.0197 0.0661,0.0393 0.10021,0.0597 0.086,0.0512 0.17307,0.0701 0.25429,0.0537 0.0548,-0.008 0.1188,-0.0433 0.18507,-0.10959 0.0475,-0.0458 0.14131,-0.18285 0.27794,-0.41377 0.59811,-1.01098 1.19619,-2.02189 1.79432,-3.0329 0.13881,-0.23463 0.2186,-0.38953 0.23701,-0.45662 0.0182,-0.0673 0.0164,-0.1422 -0.006,-0.21493 -0.0236,-0.0747 -0.0802,-0.13414 -0.16431,-0.18419 -0.034,-0.0202 -0.0671,-0.0399 -0.1002,-0.0596 0.0251,-0.0424 0.0503,-0.0851 0.075,-0.12686 0.50062,0.29798 1.0012,0.59591 1.50277,0.89446 -0.0248,0.0418 -0.0499,0.0843 -0.0751,0.12686 -0.10294,-0.0613 -0.1958,-0.0857 -0.27379,-0.0726 -0.056,0.009 -0.12061,0.0443 -0.18542,0.10631 -0.0531,0.0466 -0.14594,0.18437 -0.28476,0.41902 -0.28267,0.47781 -0.56575,0.95626 -0.84885,1.43479 0.64294,-0.24484 1.29601,-0.47225 1.93802,-0.71767 0.26946,-0.10356 0.43958,-0.2077 0.50789,-0.32316 0.0499,-0.0843 0.0578,-0.17094 0.0246,-0.26164 -0.0191,-0.0431 -0.09,-0.107 -0.2144,-0.19028 0.0251,-0.0424 0.0503,-0.085 0.0751,-0.12684 0.39199,0.23331 0.78494,0.46719 1.17692,0.70049 -0.0248,0.0418 -0.0499,0.0843 -0.0751,0.12684 -0.10949,-0.0522 -0.21043,-0.0718 -0.29643,-0.0623 -0.0879,0.012 -0.32356,0.0806 -0.69602,0.22451 -0.50532,0.18919 -1.01926,0.36491 -1.52355,0.55458 z"
               style="fill:#000000;fill-opacity:1;fill-rule:evenodd;stroke:#000000;stroke-width:0.15070882;stroke-miterlimit:4;stroke-dasharray:none" />
            <path
               inkscape:connector-curvature="0"
               id="path4225-7"
               d="m -242.14698,141.60241 c 0.4764,0.29733 0.71026,0.76546 0.68587,1.40002 -0.0243,0.63252 -0.25879,1.27726 -0.71575,1.9267 -0.391,0.5557 -0.84262,0.9645 -1.35122,1.24019 -0.67084,0.365 -1.27207,0.35781 -1.78537,-0.006 -0.51597,-0.36524 -0.7333,-0.91801 -0.63439,-1.64894 0.0805,-0.57875 0.31608,-1.15998 0.72329,-1.73871 0.45696,-0.64943 0.98802,-1.08323 1.58109,-1.31853 0.59062,-0.23374 1.0935,-0.18043 1.49648,0.14477 z m -0.11881,0.22399 c -0.26203,-0.18548 -0.60715,-0.12485 -1.03061,0.1904 -0.34659,0.25952 -0.74218,0.69945 -1.18542,1.32939 -0.5245,0.74542 -0.82314,1.36097 -0.90731,1.83971 -0.058,0.33298 0.0236,0.57778 0.23902,0.73022 0.14627,0.10354 0.30636,0.13585 0.47754,0.097 0.22144,-0.053 0.4731,-0.20238 0.75591,-0.45718 0.2799,-0.25274 0.5916,-0.62118 0.93485,-1.10901 0.40672,-0.57803 0.67579,-1.04047 0.81137,-1.37689 0.13309,-0.33597 0.17891,-0.60198 0.15776,-0.79741 -0.0238,-0.1974 -0.11147,-0.34595 -0.25323,-0.4463 z"
               style="fill:#000000;fill-opacity:1;fill-rule:evenodd;stroke:#000000;stroke-width:0.15070882;stroke-miterlimit:4;stroke-dasharray:none" />
            <path
               inkscape:connector-curvature="0"
               id="path4227"
               d="m -238.97229,144.11402 c -0.26643,1.21989 -0.50323,2.45053 -0.76793,3.67186 0.48658,-0.59349 0.97316,-1.18698 1.45975,-1.78046 0.20246,-0.24695 0.31559,-0.43499 0.34281,-0.5623 0.0337,-0.1712 -0.0301,-0.31532 -0.18225,-0.43506 0.0313,-0.0381 0.0626,-0.0764 0.0934,-0.11393 0.29861,0.24631 0.59722,0.49262 0.89501,0.73824 -0.0308,0.0375 -0.0621,0.0757 -0.0934,0.11391 -0.13114,-0.0725 -0.23367,-0.10703 -0.29839,-0.1044 -0.07,0.004 -0.14825,0.0367 -0.23562,0.0983 -0.0883,0.0643 -0.21336,0.19105 -0.3739,0.38688 -0.94184,1.14875 -1.88479,2.29889 -2.82668,3.4477 -0.0231,-0.019 -0.0459,-0.0378 -0.0687,-0.0566 0.34545,-1.64761 0.64973,-3.31089 0.99344,-4.95982 -0.71926,0.87728 -1.43904,1.7552 -2.15828,2.63246 -0.19524,0.23814 -0.28988,0.42983 -0.28829,0.5719 0.002,0.13977 0.0504,0.25076 0.142,0.32633 0.0213,0.0175 0.0432,0.0357 0.0645,0.0532 -0.0307,0.0374 -0.0615,0.075 -0.0923,0.11259 -0.32067,-0.2645 -0.64135,-0.529 -0.96199,-0.7935 0.0308,-0.0376 0.0616,-0.0751 0.0923,-0.11257 0.15245,0.11931 0.29424,0.1614 0.4274,0.11686 0.13229,-0.0451 0.29039,-0.17551 0.47052,-0.39521 0.79865,-0.97412 1.59732,-1.94824 2.39597,-2.92236 0.0109,-0.0522 0.0222,-0.10442 0.0333,-0.15678 0.033,-0.15798 0.041,-0.27375 0.0251,-0.34286 -0.0152,-0.0698 -0.0639,-0.14422 -0.14302,-0.21403 0.0313,-0.0381 0.0626,-0.0764 0.0934,-0.11394 0.32066,0.26449 0.64134,0.529 0.96201,0.7935 z"
               style="fill:#000000;fill-opacity:1;fill-rule:evenodd;stroke:#000000;stroke-width:0.15070882;stroke-miterlimit:4;stroke-dasharray:none" />
            <path
               inkscape:connector-curvature="0"
               id="path4229"
               d="m -234.19769,147.8665 c -0.36205,0.51453 -0.72405,1.02902 -1.08604,1.54349 -0.0259,-0.0183 -0.0511,-0.0362 -0.0769,-0.0545 0.20376,-0.49031 0.28092,-0.91138 0.25193,-1.26378 -0.0303,-0.35225 -0.16372,-0.60986 -0.38805,-0.76865 -0.21351,-0.15115 -0.45919,-0.18991 -0.72876,-0.10295 -0.27003,0.0856 -0.55529,0.26953 -0.84566,0.55799 -0.28898,0.28842 -0.55863,0.60461 -0.80231,0.95093 -0.29501,0.41928 -0.5212,0.81155 -0.67954,1.17401 -0.15865,0.36115 -0.21493,0.66829 -0.17554,0.92005 0.0352,0.24969 0.15811,0.44587 0.35641,0.58624 0.07,0.0496 0.14899,0.0862 0.23849,0.11583 0.088,0.0276 0.18435,0.0495 0.28958,0.0602 0.21377,-0.3038 0.42699,-0.60684 0.64076,-0.91065 0.12086,-0.17177 0.19171,-0.29021 0.21335,-0.3528 0.0199,-0.0583 0.0198,-0.12537 0.001,-0.20239 -0.0192,-0.076 -0.0654,-0.13823 -0.1345,-0.18713 -0.0243,-0.0172 -0.0494,-0.0349 -0.0735,-0.0521 0.0279,-0.0396 0.0558,-0.0794 0.0842,-0.11978 0.46391,0.3284 0.92877,0.65746 1.3927,0.98586 -0.0284,0.0403 -0.0564,0.0801 -0.0842,0.11979 -0.11147,-0.0653 -0.20229,-0.0944 -0.26557,-0.0906 -0.066,0.006 -0.13702,0.0382 -0.21528,0.0996 -0.0415,0.032 -0.11936,0.12735 -0.23106,0.2861 -0.21376,0.30382 -0.427,0.60685 -0.64075,0.91066 -0.27197,-0.001 -0.52797,-0.0463 -0.76981,-0.11899 -0.24289,-0.079 -0.47019,-0.19345 -0.68381,-0.34466 -0.27186,-0.19244 -0.46042,-0.40597 -0.5572,-0.65062 -0.0969,-0.24041 -0.15676,-0.50122 -0.1609,-0.7819 -0.006,-0.28067 0.0284,-0.56503 0.11318,-0.84851 0.11043,-0.36726 0.2942,-0.73546 0.55317,-1.10352 0.46357,-0.65883 1.01057,-1.10177 1.62902,-1.34831 0.61982,-0.24659 1.16539,-0.19658 1.62481,0.12869 0.14176,0.10035 0.25981,0.20765 0.34835,0.32455 0.0494,0.0598 0.11866,0.1791 0.19987,0.35983 0.079,0.17799 0.13308,0.2769 0.15998,0.29595 0.0395,0.028 0.091,0.031 0.15633,0.009 0.0642,-0.0184 0.15468,-0.0786 0.26893,-0.18149 0.0259,0.0183 0.0511,0.0362 0.0769,0.0545 z"
               style="fill:#000000;fill-opacity:1;fill-rule:evenodd;stroke:#000000;stroke-width:0.15070882;stroke-miterlimit:4;stroke-dasharray:none" />
            <path
               inkscape:connector-curvature="0"
               id="path4231"
               d="m -232.40383,149.43587 c -0.40743,0.60117 -0.81534,1.20304 -1.22271,1.80413 0.0191,0.0131 0.038,0.0259 0.0581,0.0397 0.18344,0.12508 0.37724,0.12905 0.57975,0.009 0.20206,-0.12169 0.43137,-0.34671 0.68771,-0.67376 0.0265,0.0181 0.0543,0.0371 0.0809,0.0552 -0.5247,0.77418 -1.04897,1.54774 -1.57319,2.32121 -0.0266,-0.0181 -0.0545,-0.0372 -0.0809,-0.0552 0.15289,-0.26305 0.25696,-0.49867 0.3135,-0.69394 0.0535,-0.19848 0.063,-0.35336 0.0279,-0.45921 -0.0331,-0.10373 -0.12216,-0.20193 -0.2611,-0.29665 -0.28171,0.41566 -0.56384,0.83194 -0.84651,1.24902 -0.16582,0.24466 -0.2587,0.39598 -0.2824,0.46217 -0.0242,0.0635 -0.0273,0.12446 -0.0153,0.18494 0.0115,0.0612 0.0607,0.11835 0.14329,0.17473 0.058,0.0396 0.11718,0.0799 0.17431,0.11888 0.2716,0.18518 0.5539,0.24098 0.84772,0.1562 0.2919,-0.0839 0.60974,-0.29017 0.94511,-0.63606 0.0273,0.0187 0.0529,0.0359 0.079,0.0539 -0.361,0.4406 -0.72476,0.87922 -1.08568,1.31987 -0.83571,-0.56983 -1.67133,-1.1396 -2.5088,-1.71062 0.0273,-0.0402 0.0545,-0.0803 0.0817,-0.12053 0.0327,0.0222 0.0645,0.044 0.0963,0.0656 0.0836,0.057 0.16933,0.0813 0.2505,0.0692 0.056,-0.005 0.12213,-0.0353 0.19143,-0.0981 0.0511,-0.0421 0.15225,-0.1738 0.30275,-0.39586 0.65892,-0.97223 1.31778,-1.94437 1.9767,-2.9166 0.13513,-0.19938 0.21518,-0.32641 0.24055,-0.37634 0.0355,-0.0859 0.0499,-0.16146 0.04,-0.23124 -0.01,-0.0974 -0.0659,-0.17724 -0.16121,-0.24225 -0.0317,-0.0216 -0.0634,-0.0433 -0.0964,-0.0657 0.0277,-0.0408 0.0554,-0.0817 0.0826,-0.12199 0.81022,0.55245 1.61955,1.1043 2.4298,1.65674 -0.29604,0.43678 -0.59254,0.87428 -0.88859,1.31108 -0.0273,-0.0187 -0.0536,-0.0366 -0.0817,-0.0557 0.1777,-0.34658 0.27277,-0.61602 0.29519,-0.80788 0.0219,-0.19037 -0.0197,-0.36481 -0.11182,-0.52487 -0.0513,-0.0926 -0.18926,-0.21441 -0.40908,-0.3643 -0.10011,-0.0682 -0.19982,-0.13625 -0.2998,-0.20442 z"
               style="fill:#000000;fill-opacity:1;fill-rule:evenodd;stroke:#000000;stroke-width:0.15070882;stroke-miterlimit:4;stroke-dasharray:none" />
            <path
               inkscape:connector-curvature="0"
               id="path4233"
               d="m -227.07903,152.48761 c -0.29474,0.67172 -0.58915,1.34273 -0.88426,2.01529 0.0302,0.0134 0.0601,0.0265 0.0924,0.0407 0.1417,0.0625 0.27358,0.0821 0.39085,0.0557 0.11855,-0.0269 0.24274,-0.0993 0.3745,-0.22735 0.12777,-0.12983 0.2604,-0.31737 0.39565,-0.57329 0.0273,0.012 0.0551,0.0243 0.0824,0.0364 -0.36039,0.82135 -0.72111,1.64348 -1.08149,2.46483 -0.0273,-0.012 -0.0551,-0.0243 -0.0824,-0.0364 0.17444,-0.47976 0.22721,-0.82409 0.16079,-1.03102 -0.068,-0.20855 -0.1911,-0.34681 -0.35796,-0.42047 -0.032,-0.0146 -0.0622,-0.0273 -0.0924,-0.0407 -0.21919,0.49955 -0.43876,0.99997 -0.65868,1.50116 -0.10918,0.24897 -0.16975,0.41239 -0.17823,0.48293 -0.01,0.0691 0.003,0.13831 0.0352,0.20952 0.0306,0.0696 0.0908,0.12704 0.18116,0.16694 0.0353,0.0152 0.0714,0.0315 0.10657,0.0471 -0.0194,0.0442 -0.039,0.0889 -0.0586,0.13341 -0.55997,-0.24718 -1.11992,-0.49437 -1.67987,-0.74154 0.0195,-0.0446 0.0391,-0.089 0.0586,-0.13342 0.0353,0.0152 0.0714,0.0316 0.10658,0.0471 0.0925,0.0409 0.18125,0.0491 0.25897,0.0226 0.0534,-0.015 0.11371,-0.0569 0.1704,-0.13132 0.0418,-0.0511 0.11831,-0.1986 0.22613,-0.44438 0.47213,-1.07599 0.9442,-2.15191 1.41633,-3.2279 0.10959,-0.24974 0.1701,-0.41316 0.18038,-0.48198 0.0126,-0.0678 2.9e-4,-0.14261 -0.0306,-0.21224 -0.0334,-0.0718 -0.0959,-0.12353 -0.18629,-0.16341 -0.0353,-0.0152 -0.0713,-0.0315 -0.10655,-0.0471 0.0198,-0.0452 0.0397,-0.0906 0.0592,-0.13502 0.90376,0.39895 1.80745,0.79785 2.71122,1.19682 -0.2057,0.46883 -0.4118,0.93853 -0.61751,1.40735 -0.0332,-0.0148 -0.0652,-0.0288 -0.0976,-0.043 0.12313,-0.33829 0.17182,-0.61019 0.15335,-0.80936 -0.021,-0.19839 -0.10471,-0.36856 -0.24756,-0.51071 -0.0785,-0.0782 -0.24702,-0.17274 -0.5023,-0.28543 -0.0996,-0.0439 -0.19906,-0.0878 -0.29854,-0.1318 z"
               style="fill:#000000;fill-opacity:1;fill-rule:evenodd;stroke:#000000;stroke-width:0.15070882;stroke-miterlimit:4;stroke-dasharray:none" />
            <path
               inkscape:connector-curvature="0"
               id="path4235"
               d="m -223.47375,153.62127 c 0.54968,0.10773 0.93525,0.46211 1.13638,1.06361 0.20268,0.60011 0.21208,1.28636 0.0152,2.05634 -0.16841,0.65884 -0.44673,1.2017 -0.8243,1.6408 -0.49759,0.58043 -1.06092,0.78844 -1.67058,0.63165 -0.61282,-0.1576 -1.01095,-0.59647 -1.17653,-1.31461 -0.12989,-0.56963 -0.11584,-1.1969 0.0594,-1.88305 0.19684,-0.76998 0.5384,-1.36511 1.00927,-1.79655 0.47019,-0.42887 0.95699,-0.55896 1.45099,-0.39818 z m -0.0313,0.25182 c -0.31061,-0.0798 -0.61172,0.0999 -0.89571,0.54555 -0.23308,0.36589 -0.44678,0.91817 -0.63771,1.66505 -0.22592,0.88378 -0.28678,1.56561 -0.19572,2.04308 0.0647,0.33219 0.228,0.53185 0.48228,0.59724 0.17447,0.0448 0.33555,0.0177 0.48183,-0.0794 0.1882,-0.12843 0.37036,-0.35791 0.54328,-0.69721 0.17296,-0.33582 0.33269,-0.7916 0.48054,-1.36998 0.17519,-0.6853 0.26379,-1.21321 0.27016,-1.57628 0.006,-0.36126 -0.0451,-0.62616 -0.13418,-0.80128 -0.0933,-0.17627 -0.22682,-0.28357 -0.39493,-0.32681 z"
               style="fill:#000000;fill-opacity:1;fill-rule:evenodd;stroke:#000000;stroke-width:0.15070882;stroke-miterlimit:4;stroke-dasharray:none" />
            <path
               inkscape:connector-curvature="0"
               id="path4237"
               d="m -219.16929,158.66049 c -0.23092,0.5834 -0.46543,1.16752 -0.69662,1.75172 -0.98859,-0.3169 -1.97831,-0.63415 -2.96801,-0.95141 0.0145,-0.0463 0.0295,-0.0926 0.0443,-0.13884 0.0376,0.0125 0.0745,0.0237 0.11093,0.0356 0.0962,0.0307 0.1842,0.0297 0.2588,-0.005 0.0536,-0.02 0.10814,-0.0683 0.15679,-0.14819 0.037,-0.0551 0.0968,-0.20998 0.17832,-0.46574 0.35679,-1.1198 0.71355,-2.2395 1.07035,-3.35931 0.0828,-0.25989 0.12596,-0.42875 0.12894,-0.49833 0.003,-0.0694 -0.0149,-0.14193 -0.0536,-0.20815 -0.0407,-0.0679 -0.1072,-0.11237 -0.20127,-0.14251 -0.0365,-0.0113 -0.0733,-0.0234 -0.11088,-0.0356 0.0145,-0.047 0.03,-0.0942 0.0447,-0.14051 0.59423,0.19048 1.18839,0.38094 1.78264,0.57142 -0.0145,0.0464 -0.0298,0.0935 -0.0447,0.14052 -0.0479,-0.0157 -0.0972,-0.0312 -0.14532,-0.0466 -0.0952,-0.0305 -0.1839,-0.0307 -0.25922,0.003 -0.0525,0.0203 -0.10641,0.0698 -0.15919,0.14835 -0.0361,0.0554 -0.0969,0.20997 -0.1783,0.46575 -0.34553,1.0844 -0.69105,2.16881 -1.03661,3.25333 -0.0828,0.2599 -0.12605,0.42874 -0.12929,0.50738 -0.003,0.0772 0.0206,0.14559 0.0658,0.19912 0.0337,0.0358 0.12927,0.0793 0.28627,0.12967 0.0931,0.0298 0.18614,0.0597 0.27927,0.0896 0.1778,0.0569 0.34292,0.0565 0.48944,-0.002 0.14741,-0.0575 0.3018,-0.17307 0.45249,-0.3528 0.15073,-0.17984 0.33149,-0.45388 0.53414,-0.83303 0.0337,0.011 0.0678,0.0218 0.10037,0.0322 z"
               style="fill:#000000;fill-opacity:1;fill-rule:evenodd;stroke:#000000;stroke-width:0.15070882;stroke-miterlimit:4;stroke-dasharray:none" />
            <path
               inkscape:connector-curvature="0"
               id="path4239"
               d="m -216.30347,157.58063 c 0.28182,0.84136 0.58646,1.67905 0.86827,2.52041 0.11779,0.35371 0.23847,0.59897 0.34461,0.73476 0.0764,0.0974 0.16779,0.15408 0.26771,0.16925 -0.007,0.0488 -0.0145,0.096 -0.0218,0.14498 -0.60166,-0.0913 -1.2054,-0.18297 -1.80703,-0.27429 0.007,-0.0489 0.0145,-0.096 0.0219,-0.14496 0.11752,0.002 0.19554,-0.0153 0.23615,-0.0482 0.0387,-0.0352 0.0607,-0.0783 0.0697,-0.13767 0.0162,-0.10822 -0.0354,-0.32683 -0.14345,-0.65419 -0.18158,-0.54924 -0.38095,-1.09757 -0.56444,-1.6489 -0.0499,0.0496 -0.10342,0.097 -0.15324,0.14646 -0.0725,0.48026 -0.14545,0.96409 -0.21818,1.44611 -0.0416,0.27595 -0.0577,0.45041 -0.0472,0.51987 0.01,0.0694 0.0421,0.13332 0.0916,0.18896 0.0508,0.0614 0.14071,0.0983 0.26884,0.11776 -0.007,0.0488 -0.0145,0.096 -0.0219,0.14495 -0.58428,-0.0887 -1.16852,-0.17736 -1.75056,-0.2657 0.007,-0.0488 0.0145,-0.096 0.0219,-0.14495 0.0368,0.006 0.0761,0.0115 0.11509,0.0174 0.0999,0.0152 0.18669,-2.5e-4 0.25561,-0.0453 0.0487,-0.0283 0.093,-0.0859 0.13036,-0.17128 0.0269,-0.0604 0.0626,-0.22278 0.10269,-0.48827 0.17548,-1.16318 0.35072,-2.32464 0.5262,-3.48783 0.0405,-0.26892 0.0566,-0.44339 0.0483,-0.51254 -0.008,-0.0691 -0.0369,-0.13773 -0.0857,-0.19703 -0.0511,-0.0596 -0.12361,-0.0938 -0.22136,-0.10864 -0.0391,-0.006 -0.0782,-0.0119 -0.11513,-0.0175 0.007,-0.0488 0.0148,-0.0979 0.0219,-0.14496 0.57557,0.0874 1.15115,0.17472 1.72669,0.26207 -0.007,0.0471 -0.0145,0.096 -0.0219,0.14496 -0.11733,-0.0179 -0.2125,-0.005 -0.27874,0.0367 -0.051,0.0297 -0.0953,0.0873 -0.13433,0.16899 -0.0294,0.0634 -0.0653,0.22591 -0.10581,0.49485 -0.083,0.55017 -0.16601,1.10039 -0.249,1.65046 0.50412,-0.47014 1.02413,-0.92711 1.52798,-1.3956 0.20996,-0.19859 0.32754,-0.35936 0.34757,-0.4921 0.0145,-0.0961 -0.0103,-0.18025 -0.0734,-0.25051 -0.0347,-0.0339 -0.12539,-0.0672 -0.27201,-0.0967 0.007,-0.0488 0.0147,-0.0979 0.0219,-0.14496 0.45172,0.0685 0.9035,0.13714 1.35528,0.20571 -0.007,0.0471 -0.0145,0.096 -0.0219,0.14497 -0.12124,-0.006 -0.22187,0.0132 -0.29924,0.0547 -0.0755,0.0439 -0.26969,0.19672 -0.55978,0.4706 -0.39717,0.365 -0.80663,0.72261 -1.20379,1.08751 z"
               style="fill:#000000;fill-opacity:1;fill-rule:evenodd;stroke:#000000;stroke-width:0.15070882;stroke-miterlimit:4;stroke-dasharray:none" />
            <path
               inkscape:connector-curvature="0"
               id="path4241"
               d="m -210.77308,156.14565 c 0.56018,-0.0335 1.02143,0.21373 1.36413,0.74722 0.34492,0.52988 0.52279,1.19228 0.52279,1.98717 0,0.68015 -0.13399,1.27534 -0.39101,1.79474 -0.33827,0.68712 -0.83255,1.02804 -1.46298,1.02804 -0.63042,0 -1.1246,-0.32507 -1.46296,-0.98032 -0.26793,-0.51942 -0.40849,-1.13053 -0.40849,-1.83887 0,-0.79489 0.18231,-1.45552 0.53158,-1.99076 0.34916,-0.53349 0.78858,-0.78078 1.30694,-0.74722 z m 0.0308,0.25083 c -0.32077,0 -0.56675,0.2491 -0.73148,0.75246 -0.13399,0.41163 -0.20436,0.99985 -0.20436,1.77174 0,0.91151 0.10986,1.58808 0.31633,2.0279 0.14499,0.30556 0.3515,0.45744 0.61507,0.45744 0.17799,0 0.32733,-0.0654 0.44375,-0.196 0.15155,-0.1714 0.27237,-0.43991 0.35585,-0.81081 0.0834,-0.36923 0.12729,-0.84968 0.12729,-1.44676 0,-0.70833 -0.046,-1.24177 -0.12967,-1.59505 -0.0834,-0.35147 -0.19767,-0.5953 -0.32946,-0.74189 -0.13191,-0.14837 -0.28993,-0.21903 -0.46346,-0.21903 z"
               style="fill:#000000;fill-opacity:1;fill-rule:evenodd;stroke:#000000;stroke-width:0.15070882;stroke-miterlimit:4;stroke-dasharray:none" />
            <path
               inkscape:connector-curvature="0"
               id="path4243"
               d="m -205.10076,156.08924 c 0.0136,0.62876 0.0272,1.25916 0.0408,1.88786 -0.0308,6.7e-4 -0.0637,0.001 -0.0942,0.002 -0.12551,-0.51489 -0.31391,-0.89952 -0.54605,-1.16664 -0.23417,-0.26518 -0.49398,-0.39204 -0.7664,-0.38612 -0.26349,0.006 -0.4829,0.12013 -0.64933,0.35159 -0.16407,0.22971 -0.287,0.54688 -0.34846,0.95288 -0.0616,0.40412 -0.0922,0.8183 -0.083,1.24209 0.0111,0.51389 0.0626,0.96335 0.15012,1.35018 0.0873,0.38502 0.22301,0.66469 0.40268,0.84458 0.17969,0.1798 0.39246,0.26352 0.63615,0.25822 0.0834,-0.002 0.17105,-0.0195 0.26049,-0.0481 0.0872,-0.0302 0.1765,-0.0711 0.26974,-0.12433 -0.008,-0.37262 -0.0161,-0.74343 -0.0241,-1.11433 -0.005,-0.21011 -0.0176,-0.3477 -0.0374,-0.41084 -0.0213,-0.0596 -0.0619,-0.11352 -0.12222,-0.16339 -0.0582,-0.0501 -0.13353,-0.0732 -0.21911,-0.0714 -0.0285,6.2e-4 -0.0594,0.001 -0.09,0.002 -10e-4,-0.0476 -0.002,-0.0972 -0.003,-0.14657 0.56875,-0.0124 1.13759,-0.0247 1.70645,-0.0371 0.001,0.0494 0.002,0.0989 0.003,0.14657 -0.12922,0.0152 -0.22101,0.0454 -0.26845,0.0855 -0.0493,0.0453 -0.0875,0.11318 -0.11416,0.2092 -0.0145,0.0498 -0.0206,0.17359 -0.0163,0.36787 0.008,0.37091 0.016,0.74171 0.0241,1.11432 -0.21841,0.16027 -0.45325,0.27665 -0.69086,0.36312 -0.24206,0.0812 -0.49161,0.12375 -0.75301,0.12944 -0.33383,0.007 -0.61188,-0.0521 -0.83243,-0.19038 -0.22048,-0.13647 -0.42197,-0.3106 -0.59379,-0.53301 -0.17176,-0.22239 -0.31347,-0.47195 -0.41168,-0.75075 -0.12873,-0.36121 -0.19903,-0.76603 -0.20877,-1.21631 -0.0175,-0.80714 0.16116,-1.48946 0.51365,-2.05548 0.35243,-0.56773 0.81873,-0.85349 1.38091,-0.86572 0.17349,-0.004 0.33202,0.0122 0.47132,0.0535 0.0772,0.0195 0.20374,0.0733 0.37509,0.17029 0.16904,0.097 0.2733,0.14424 0.30399,0.14358 0.0483,-0.001 0.0916,-0.0303 0.13232,-0.0859 0.0406,-0.054 0.078,-0.15719 0.10775,-0.30625 0.0308,-6.7e-4 0.0637,-0.001 0.0942,-0.002 z"
               style="fill:#000000;fill-opacity:1;fill-rule:evenodd;stroke:#000000;stroke-width:0.15070882;stroke-miterlimit:4;stroke-dasharray:none" />
            <path
               inkscape:connector-curvature="0"
               id="path4245"
               d="m -200.70765,155.69833 c 0.13236,0.7209 0.26481,1.44189 0.39753,2.16455 0.0346,-0.006 0.067,-0.0127 0.10165,-0.0188 0.15124,-0.0279 0.27012,-0.0859 0.35457,-0.17326 0.082,-0.0888 0.14512,-0.21904 0.18121,-0.39987 0.0342,-0.17881 0.0387,-0.40952 0.006,-0.69632 0.0302,-0.006 0.0605,-0.0112 0.0884,-0.0164 0.16208,0.88254 0.32413,1.76494 0.48622,2.64746 -0.0283,0.005 -0.0584,0.0111 -0.0885,0.0164 -0.12434,-0.49433 -0.27376,-0.80972 -0.44359,-0.94363 -0.17193,-0.13346 -0.35226,-0.17917 -0.53155,-0.14609 -0.0346,0.006 -0.067,0.0127 -0.10165,0.0188 0.0986,0.53675 0.19748,1.07528 0.29638,1.6138 0.0491,0.2676 0.0904,0.43597 0.12529,0.49953 0.0296,0.0627 0.0788,0.11306 0.14643,0.15262 0.0632,0.0405 0.14628,0.0538 0.24334,0.0359 0.0389,-0.007 0.0756,-0.0143 0.11451,-0.0212 0.009,0.0486 0.0175,0.0955 0.0265,0.1442 -0.6006,0.11097 -1.20331,0.22234 -1.806,0.3337 -0.009,-0.0486 -0.0176,-0.0955 -0.0265,-0.14421 0.0389,-0.007 0.0777,-0.0144 0.11668,-0.0215 0.0972,-0.018 0.1742,-0.0609 0.22691,-0.12642 0.0349,-0.0423 0.0599,-0.11163 0.0653,-0.20418 0.008,-0.0662 -0.0129,-0.23112 -0.0618,-0.49516 -0.21249,-1.15695 -0.42465,-2.31217 -0.63712,-3.46913 -0.0491,-0.26751 -0.0896,-0.43789 -0.12095,-0.50035 -0.0294,-0.0629 -0.0796,-0.11813 -0.14311,-0.15855 -0.0676,-0.0397 -0.14957,-0.048 -0.24447,-0.0304 -0.0389,0.007 -0.0778,0.0144 -0.11668,0.0215 -0.009,-0.0487 -0.0178,-0.0972 -0.0265,-0.1442 0.9721,-0.1796 1.94205,-0.35882 2.9142,-0.53844 0.0925,0.50382 0.18504,1.00757 0.27756,1.51131 -0.0366,0.007 -0.0712,0.013 -0.10587,0.0196 -0.0864,-0.3486 -0.19725,-0.60119 -0.32622,-0.75516 -0.12864,-0.15226 -0.29092,-0.24614 -0.49194,-0.28271 -0.10678,-0.0215 -0.29784,-0.004 -0.57438,0.0469 -0.10804,0.02 -0.21387,0.0395 -0.32192,0.0594 z"
               style="fill:#000000;fill-opacity:1;fill-rule:evenodd;stroke:#000000;stroke-width:0.15070882;stroke-miterlimit:4;stroke-dasharray:none" />
            <path
               inkscape:connector-curvature="0"
               id="path4247"
               d="m -196.83333,154.75064 c 0.20452,0.69647 0.40954,1.39458 0.61453,2.09268 0.0233,-0.007 0.0442,-0.0131 0.0673,-0.0199 0.21279,-0.0628 0.33893,-0.2106 0.37355,-0.44365 0.034,-0.23478 0.007,-0.55439 -0.0829,-0.96073 0.0317,-0.009 0.063,-0.0187 0.0947,-0.028 0.26372,0.89807 0.52693,1.79441 0.79066,2.69249 -0.0316,0.009 -0.063,0.0187 -0.0947,0.028 -0.10478,-0.28582 -0.22046,-0.51682 -0.33572,-0.68346 -0.11796,-0.16773 -0.23163,-0.2741 -0.33481,-0.3136 -0.10159,-0.0417 -0.23228,-0.0349 -0.39451,0.0134 0.14182,0.48293 0.28365,0.96589 0.42543,1.44875 0.0836,0.28469 0.14103,0.45183 0.178,0.51275 0.0333,0.0583 0.0775,0.10043 0.132,0.12859 0.0545,0.0299 0.12958,0.0284 0.22645,-5e-4 0.0674,-0.02 0.13495,-0.0399 0.20233,-0.0598 0.31399,-0.0928 0.53713,-0.27652 0.65847,-0.5572 0.11925,-0.28016 0.16186,-0.65739 0.10805,-1.13687 0.0316,-0.009 0.0611,-0.018 0.0928,-0.0275 0.10948,0.56061 0.2165,1.12009 0.32852,1.67997 -0.97151,0.28702 -1.94075,0.57336 -2.90999,0.8597 -0.0139,-0.0475 -0.0274,-0.0931 -0.0413,-0.14064 0.0357,-0.0105 0.0735,-0.0217 0.11168,-0.033 0.0968,-0.0286 0.16894,-0.0794 0.21253,-0.14942 0.0303,-0.0457 0.048,-0.11729 0.046,-0.21053 -0.001,-0.066 -0.0374,-0.2284 -0.113,-0.48596 -0.33139,-1.1285 -0.66228,-2.25531 -0.99367,-3.38381 -0.0677,-0.23045 -0.11763,-0.37216 -0.13874,-0.42487 -0.0421,-0.0814 -0.0935,-0.13994 -0.15306,-0.1776 -0.0821,-0.0532 -0.17839,-0.0614 -0.28784,-0.0291 -0.0379,0.0112 -0.0759,0.0224 -0.11167,0.033 -0.0139,-0.0474 -0.0279,-0.0949 -0.0413,-0.14065 0.93762,-0.27701 1.8774,-0.55465 2.81719,-0.83229 0.14877,0.5066 0.29755,1.01324 0.44632,1.51989 -0.0316,0.009 -0.0632,0.0186 -0.0948,0.028 -0.15309,-0.35804 -0.30242,-0.60123 -0.43503,-0.74063 -0.13411,-0.1372 -0.29489,-0.2167 -0.4753,-0.24626 -0.10416,-0.0188 -0.28544,0.0106 -0.54041,0.086 -0.11581,0.0342 -0.23179,0.0685 -0.34763,0.1027 z"
               style="fill:#000000;fill-opacity:1;fill-rule:evenodd;stroke:#000000;stroke-width:0.15070882;stroke-miterlimit:4;stroke-dasharray:none" />
            <path
               inkscape:connector-curvature="0"
               id="path4249"
               d="m -192.26058,158.61252 c -0.0195,-0.0455 -0.0383,-0.0892 -0.0579,-0.13462 0.0343,-0.0148 0.0704,-0.0304 0.10679,-0.0462 0.0928,-0.0401 0.15637,-0.0927 0.18579,-0.16326 0.0296,-0.0646 0.0422,-0.14139 0.0316,-0.2271 -0.008,-0.0581 -0.0656,-0.21406 -0.1744,-0.46711 -0.46453,-1.08023 -0.92835,-2.15883 -1.39289,-3.23908 -0.1074,-0.24976 -0.18582,-0.40629 -0.22913,-0.46066 -0.0426,-0.0547 -0.10613,-0.0964 -0.17671,-0.12167 -0.0748,-0.0236 -0.15441,-0.0141 -0.2452,0.0252 -0.0363,0.0157 -0.0725,0.0314 -0.10677,0.0461 -0.0195,-0.0454 -0.0391,-0.0908 -0.0579,-0.13462 0.48003,-0.20768 0.96204,-0.4162 1.44207,-0.62388 0.3853,-0.16669 0.72937,-0.2232 1.03317,-0.16228 0.36941,0.0748 0.71753,0.27246 1.03569,0.60609 0.31332,0.33388 0.58597,0.75067 0.80081,1.25029 0.14858,0.34551 0.24751,0.68168 0.29982,1.00332 0.0558,0.32405 0.0621,0.60607 0.028,0.84403 -0.032,0.24271 -0.10219,0.45205 -0.20193,0.63175 -0.10102,0.18218 -0.251,0.351 -0.44161,0.50842 -0.0845,0.0711 -0.22936,0.15106 -0.43713,0.24095 -0.48004,0.20769 -0.96204,0.41621 -1.44208,0.62389 z m -0.76865,-5.17507 c 0.55101,1.28134 1.10135,2.56113 1.65166,3.84083 0.0872,0.20274 0.14917,0.32409 0.18141,0.36589 0.0295,0.0432 0.0666,0.0655 0.10779,0.0785 0.0575,0.0175 0.12857,0.009 0.20918,-0.0252 0.26433,-0.11436 0.41076,-0.34126 0.42859,-0.67795 0.0265,-0.45582 -0.12503,-1.07505 -0.46194,-1.85852 -0.27132,-0.63094 -0.55482,-1.10659 -0.84433,-1.42953 -0.22783,-0.25157 -0.45147,-0.39332 -0.65685,-0.43149 -0.14568,-0.0274 -0.3527,0.0198 -0.61556,0.13745 z"
               style="fill:#000000;fill-opacity:1;fill-rule:evenodd;stroke:#000000;stroke-width:0.15070882;stroke-miterlimit:4;stroke-dasharray:none" />
            <path
               inkscape:connector-curvature="0"
               id="path4251"
               d="m -188.00618,154.06723 c 0.22669,0.44518 0.45419,0.89195 0.68087,1.33711 0.13058,0.25643 0.22503,0.41237 0.28065,0.46911 0.0541,0.0575 0.11728,0.0947 0.19018,0.10688 0.0729,0.0123 0.17914,-0.0162 0.32191,-0.0895 0.0224,0.044 0.0441,0.0865 0.0665,0.13058 -0.5321,0.27259 -1.06619,0.5462 -1.60017,0.81976 -0.0224,-0.044 -0.0441,-0.0865 -0.0665,-0.13057 0.14669,-0.0751 0.23402,-0.14571 0.26526,-0.21517 0.0289,-0.0644 0.0416,-0.13637 0.0268,-0.21408 -0.0126,-0.0787 -0.0876,-0.24471 -0.21814,-0.50114 -0.5255,-1.032 -1.05176,-2.06548 -1.57804,-3.09899 -0.13058,-0.25643 -0.22269,-0.41748 -0.27853,-0.47422 -0.0533,-0.0561 -0.11947,-0.0895 -0.18962,-0.10119 -0.0729,-0.0123 -0.18114,0.0173 -0.32587,0.0914 -0.0224,-0.044 -0.0449,-0.088 -0.0665,-0.13056 0.48512,-0.24853 0.96834,-0.49608 1.45345,-0.74459 0.37757,-0.19343 0.67463,-0.298 0.89033,-0.3054 0.21654,-0.006 0.43544,0.0606 0.6527,0.22099 0.21845,0.15783 0.40427,0.38205 0.55165,0.67146 0.17944,0.35239 0.24141,0.68757 0.19604,1.00037 -0.03,0.19788 -0.12605,0.38198 -0.27942,0.55572 0.52207,0.41485 1.05543,0.818 1.57674,1.23134 0.20349,0.15757 0.33963,0.25042 0.40791,0.2829 0.0991,0.0444 0.19464,0.0431 0.28004,0.007 0.0223,0.0439 0.044,0.0865 0.0665,0.13056 -0.3287,0.1684 -0.65541,0.33577 -0.98599,0.50512 -0.69877,-0.55841 -1.41267,-1.10303 -2.11333,-1.66048 -0.0684,0.0351 -0.13696,0.0702 -0.2054,0.10523 z m -1.19278,-2.34239 c 0.35566,0.69846 0.71054,1.39536 1.06541,2.09226 0.0431,-0.0221 0.088,-0.0451 0.13099,-0.0671 0.21519,-0.11024 0.35754,-0.22292 0.43273,-0.33686 0.0745,-0.11541 0.10492,-0.264 0.0874,-0.45329 -0.0224,-0.18486 -0.0934,-0.40642 -0.22078,-0.65655 -0.18424,-0.3618 -0.38073,-0.60235 -0.57649,-0.72025 -0.19957,-0.11585 -0.42635,-0.11081 -0.67289,0.0155 -0.0822,0.0421 -0.16425,0.0841 -0.24639,0.12622 z"
               style="fill:#000000;fill-opacity:1;fill-rule:evenodd;stroke:#000000;stroke-width:0.15070882;stroke-miterlimit:4;stroke-dasharray:none" />
            <path
               inkscape:connector-curvature="0"
               id="path4253"
               d="m -185.40983,149.61599 c 0.4183,0.59255 0.83759,1.18651 1.25687,1.78044 0.0198,-0.0141 0.0375,-0.0266 0.0573,-0.0407 0.18111,-0.12865 0.2527,-0.30932 0.21204,-0.54233 -0.0436,-0.23314 -0.17278,-0.52666 -0.38853,-0.88207 0.0251,-0.0179 0.0536,-0.0381 0.0788,-0.056 0.53938,0.76406 1.07772,1.52668 1.6171,2.29075 -0.0251,0.0179 -0.0538,0.0382 -0.0788,0.056 -0.19302,-0.23524 -0.37719,-0.41612 -0.53836,-0.53754 -0.16753,-0.11913 -0.30932,-0.18294 -0.41973,-0.18677 -0.10959,-0.006 -0.23103,0.0424 -0.36893,0.14088 0.29005,0.41089 0.58012,0.82178 0.87012,1.2326 0.17098,0.2422 0.28008,0.38113 0.33382,0.4274 0.0504,0.0444 0.10573,0.0699 0.16795,0.0777 0.0596,0.0118 0.13001,-0.0143 0.21236,-0.0727 0.0574,-0.0408 0.11481,-0.0816 0.17215,-0.12225 0.26717,-0.18975 0.41897,-0.43605 0.44316,-0.741 0.0224,-0.3038 -0.059,-0.67457 -0.26282,-1.11206 0.0251,-0.0179 0.0502,-0.0356 0.0772,-0.0549 0.2847,0.49476 0.56637,0.98947 0.85306,1.48283 -0.82472,0.5857 -1.64935,1.17135 -2.4758,1.7583 -0.0285,-0.0404 -0.0559,-0.0793 -0.0845,-0.11965 0.0323,-0.0229 0.0626,-0.0444 0.095,-0.0675 0.0824,-0.0585 0.13421,-0.13 0.15287,-0.2104 0.0154,-0.0542 0.009,-0.12777 -0.0245,-0.2141 -0.0224,-0.0622 -0.10909,-0.20396 -0.26376,-0.42311 -0.67778,-0.96011 -1.35453,-1.9188 -2.03231,-2.87892 -0.13843,-0.19606 -0.22896,-0.31567 -0.2684,-0.35694 -0.0662,-0.0632 -0.13203,-0.10321 -0.20214,-0.11834 -0.093,-0.025 -0.18856,-1.5e-4 -0.2817,0.0659 -0.0323,0.0229 -0.0627,0.0446 -0.095,0.0675 -0.0285,-0.0403 -0.057,-0.0807 -0.0845,-0.11965 0.79956,-0.56784 1.59729,-1.13439 2.39867,-1.70353 0.30426,0.43102 0.60855,0.86206 0.91285,1.29312 -0.0288,0.0204 -0.0538,0.0382 -0.0807,0.0573 -0.26236,-0.28765 -0.48031,-0.47055 -0.65248,-0.55818 -0.16937,-0.0875 -0.3471,-0.11058 -0.52916,-0.0787 -0.10462,0.0161 -0.26667,0.10276 -0.48357,0.2568 -0.0986,0.07 -0.19723,0.14006 -0.29576,0.21005 z"
               style="fill:#000000;fill-opacity:1;fill-rule:evenodd;stroke:#000000;stroke-width:0.15070882;stroke-miterlimit:4;stroke-dasharray:none" />
            <path
               inkscape:connector-curvature="0"
               id="path4255"
               d="m -178.54365,148.50724 c 0.34487,0.52271 0.69177,1.0484 1.0375,1.57272 -0.82416,0.63464 -1.6483,1.26927 -2.47246,1.90391 -0.03,-0.0393 -0.059,-0.077 -0.089,-0.11628 0.0314,-0.0241 0.0609,-0.0469 0.0924,-0.0711 0.0802,-0.0617 0.1292,-0.13516 0.14465,-0.21615 0.0133,-0.0548 0.005,-0.12817 -0.0327,-0.213 -0.0248,-0.0613 -0.11686,-0.19959 -0.27986,-0.41258 -0.71424,-0.93314 -1.42742,-1.86487 -2.14166,-2.79802 -0.16514,-0.21576 -0.27925,-0.34838 -0.33469,-0.39032 -0.0548,-0.0425 -0.1246,-0.0687 -0.20104,-0.0745 -0.0764,-0.006 -0.15327,0.0243 -0.23159,0.0847 -0.0314,0.0242 -0.061,0.047 -0.0923,0.0711 -0.03,-0.0392 -0.06,-0.0784 -0.089,-0.11629 0.49484,-0.38105 0.98969,-0.76211 1.48452,-1.14316 0.0289,0.0377 0.059,0.077 0.089,0.11629 -0.0401,0.0309 -0.0801,0.0618 -0.1202,0.0926 -0.0802,0.0617 -0.13195,0.13502 -0.14472,0.21608 -0.0133,0.0547 -0.005,0.12817 0.031,0.21443 0.0227,0.0627 0.11675,0.19952 0.2798,0.41249 0.69176,0.90376 1.38237,1.80603 2.07412,2.70979 0.16515,0.21576 0.27847,0.34898 0.3419,0.39594 0.0609,0.0466 0.12919,0.0675 0.19868,0.0607 0.0489,-0.008 0.13816,-0.0618 0.27065,-0.16378 0.0766,-0.059 0.155,-0.11938 0.22998,-0.17711 0.14806,-0.11397 0.24235,-0.25129 0.27996,-0.40494 0.0365,-0.15489 0.0281,-0.34675 -0.0324,-0.57404 -0.0626,-0.22594 -0.18284,-0.53184 -0.37635,-0.91499 0.028,-0.0215 0.0557,-0.0429 0.0836,-0.0645 z"
               style="fill:#000000;fill-opacity:1;fill-rule:evenodd;stroke:#000000;stroke-width:0.15070882;stroke-miterlimit:4;stroke-dasharray:none" />
            <path
               inkscape:connector-curvature="0"
               id="path4257"
               d="m -176.37125,147.0584 c -0.3245,0.25618 -0.64908,0.51241 -0.97357,0.76858 0.0689,0.16601 0.13688,0.33481 0.20573,0.50072 0.0698,0.16745 0.13745,0.29623 0.20709,0.38506 0.0926,0.11803 0.19224,0.18095 0.29788,0.18744 0.0653,0.005 0.17353,-0.0426 0.32986,-0.13904 0.0305,0.0388 0.0598,0.0763 0.0904,0.11519 -0.30551,0.24117 -0.61101,0.48235 -0.91663,0.7236 -0.0305,-0.0388 -0.0599,-0.0763 -0.0904,-0.11519 0.0826,-0.10122 0.11539,-0.23056 0.097,-0.38233 -0.0212,-0.15177 -0.10322,-0.42669 -0.26296,-0.81965 -0.55736,-1.37637 -1.09406,-2.76222 -1.65064,-4.14138 0.0124,-0.009 0.0242,-0.0191 0.0381,-0.0301 1.22959,0.89731 2.47559,1.77275 3.70526,2.66998 0.34909,0.25269 0.59367,0.39677 0.72055,0.43375 0.095,0.0284 0.18993,0.0142 0.28218,-0.0429 0.0305,0.0388 0.0599,0.0763 0.0904,0.1152 -0.44538,0.3516 -0.88897,0.70178 -1.33434,1.05337 -0.0305,-0.0388 -0.0599,-0.0763 -0.0904,-0.1152 0.0172,-0.0135 0.0362,-0.0286 0.0535,-0.0423 0.10881,-0.0858 0.16729,-0.16807 0.17445,-0.24791 0.002,-0.0577 -0.0198,-0.11482 -0.0689,-0.17717 -0.0293,-0.0374 -0.0628,-0.0719 -0.10269,-0.10552 -0.0147,-0.0174 -0.0976,-0.0781 -0.24339,-0.18545 -0.18557,-0.13676 -0.37279,-0.27225 -0.55844,-0.40898 z m -0.24876,-0.17446 c -0.5147,-0.37821 -1.03705,-0.74812 -1.55008,-1.12756 0.24205,0.59334 0.47436,1.19223 0.71638,1.7857 0.27798,-0.21944 0.55582,-0.43878 0.8337,-0.65814 z"
               style="fill:#000000;fill-opacity:1;fill-rule:evenodd;stroke:#000000;stroke-width:0.15070882;stroke-miterlimit:4;stroke-dasharray:none" />
            <path
               inkscape:connector-curvature="0"
               id="path4259"
               d="m -176.15357,141.60324 c 1.12867,0.52913 2.27511,1.03099 3.40161,1.55732 -0.46937,-0.60499 -0.94095,-1.21282 -1.41034,-1.81782 -0.19685,-0.25374 -0.35311,-0.40485 -0.47307,-0.45901 -0.15533,-0.0712 -0.30956,-0.0403 -0.4635,0.0843 -0.0302,-0.0389 -0.0606,-0.078 -0.0908,-0.11709 0.30517,-0.2382 0.61024,-0.47631 0.91539,-0.7145 0.0303,0.039 0.0605,0.078 0.0908,0.1171 -0.0971,0.11163 -0.15312,0.20454 -0.16531,0.26772 -0.0134,0.0687 0.003,0.15432 0.0449,0.25146 0.0406,0.10261 0.13487,0.25289 0.29063,0.45364 0.91065,1.17376 1.8213,2.34754 2.73201,3.52138 -0.0207,0.0162 -0.045,0.0352 -0.0693,0.054 -1.52659,-0.69754 -3.07781,-1.3625 -4.60433,-2.05996 0.69434,0.89497 1.39086,1.79274 2.08736,2.69047 0.18818,0.24256 0.35394,0.37733 0.49172,0.40406 0.13638,0.0324 0.25553,0.007 0.34908,-0.0665 0.0209,-0.0163 0.0418,-0.0326 0.0658,-0.0514 0.0303,0.039 0.0606,0.078 0.0909,0.11713 -0.32931,0.25703 -0.65531,0.51149 -0.98461,0.76852 -0.0303,-0.039 -0.0606,-0.078 -0.0909,-0.11713 0.14943,-0.12294 0.22328,-0.25029 0.20863,-0.39114 -0.0147,-0.14074 -0.1067,-0.32407 -0.27979,-0.54714 -0.77222,-0.99533 -1.54444,-1.99067 -2.31667,-2.98602 -0.0475,-0.0254 -0.0965,-0.0455 -0.14759,-0.0684 -0.14549,-0.0655 -0.2558,-0.10021 -0.32688,-0.0985 -0.073,-10e-4 -0.15413,0.0308 -0.23955,0.093 -0.0303,-0.0391 -0.0606,-0.078 -0.0909,-0.1171 0.32932,-0.25704 0.65528,-0.51147 0.98459,-0.76851 z"
               style="fill:#000000;fill-opacity:1;fill-rule:evenodd;stroke:#000000;stroke-width:0.15070882;stroke-miterlimit:4;stroke-dasharray:none" />
            <path
               inkscape:connector-curvature="0"
               id="path4261"
               d="m -170.20126,143.55282 c -0.0293,-0.0397 -0.0586,-0.0795 -0.0879,-0.11936 0.0318,-0.0236 0.0635,-0.0471 0.0953,-0.0707 0.0814,-0.0602 0.13238,-0.12449 0.14684,-0.20119 0.0131,-0.0712 0.007,-0.14593 -0.0219,-0.22972 -0.0227,-0.0534 -0.11421,-0.19214 -0.27744,-0.4138 -0.69695,-0.94621 -1.39178,-1.88956 -2.08875,-2.83579 -0.16113,-0.21877 -0.27304,-0.35551 -0.32688,-0.39906 -0.0539,-0.0436 -0.12349,-0.071 -0.19859,-0.0768 -0.0809,-0.006 -0.15706,0.0243 -0.23483,0.0817 -0.0318,0.0236 -0.0635,0.0471 -0.0953,0.0707 -0.0293,-0.0398 -0.0586,-0.0795 -0.0879,-0.11933 0.42398,-0.31419 0.84445,-0.62577 1.26496,-0.93737 0.33929,-0.25142 0.66158,-0.38483 0.97113,-0.39461 0.37503,-0.01 0.75983,0.1046 1.14585,0.35437 0.37905,0.25504 0.73714,0.60018 1.05947,1.0378 0.22393,0.30402 0.3973,0.60607 0.52197,0.90897 0.12482,0.30278 0.19478,0.57598 0.21733,0.81412 0.0266,0.24378 0.003,0.46355 -0.0547,0.65979 -0.0555,0.19921 -0.1629,0.40182 -0.3139,0.59719 -0.0662,0.0885 -0.1899,0.20214 -0.37012,0.33569 -0.42048,0.31159 -0.84096,0.62318 -1.26494,0.93735 z m -1.91944,-4.86759 c 0.8267,1.12237 1.6534,2.24474 2.47804,3.36432 0.13187,0.17904 0.21865,0.28165 0.25838,0.31365 0.0422,0.0347 0.0805,0.0503 0.12557,0.052 0.0584,0.005 0.12739,-0.0201 0.19819,-0.0722 0.22961,-0.17015 0.32199,-0.4231 0.26211,-0.75653 -0.0782,-0.44717 -0.36237,-1.01843 -0.86886,-1.70608 -0.40601,-0.55121 -0.79261,-0.94999 -1.14843,-1.19577 -0.27883,-0.19312 -0.52512,-0.2829 -0.73556,-0.27197 -0.14915,0.005 -0.33829,0.0971 -0.56946,0.27265 z"
               style="fill:#000000;fill-opacity:1;fill-rule:evenodd;stroke:#000000;stroke-width:0.15070882;stroke-miterlimit:4;stroke-dasharray:none" />
          </g>
        </g>
        <g
           style="stroke:#000000"
           transform="translate(13.33136,24.83136)"
           id="g4549-6-4-2" />
      </g>
    </g>
  </g>
</svg>
